<svg id="Capa_1" enable-background="new 0 0 512 512" height="512" viewBox="0 0 512 512" width="512" xmlns="http://www.w3.org/2000/svg"><g><g><path d="m430.969 132.065c1.199-3.833 1.847-7.91 1.847-12.139 0-19.388-13.592-35.592-31.765-39.629-1.949-40.532-35.424-72.797-76.44-72.797-14.771 0-28.561 4.188-40.252 11.439-7.247-6.733-16.953-10.857-27.626-10.857s-20.378 4.124-27.626 10.857c-11.692-7.251-25.481-11.439-40.252-11.439-41.016 0-74.491 32.265-76.44 72.798-18.172 4.037-31.765 20.241-31.765 39.629 0 4.228.648 8.305 1.847 12.139-21.113 13.618-35.097 37.333-35.097 64.328 0 42.269 34.266 76.535 76.535 76.535h265.595c42.269 0 76.535-34.266 76.535-76.535 0-26.995-13.984-50.71-35.096-64.329z" fill="#365e7d"/><path d="m255.281 272.928h-131.347c-42.268 0-76.541-34.263-76.541-76.531 0-26.998 13.989-50.713 35.103-64.333-1.201-3.832-1.851-7.915-1.851-12.138 0-19.393 13.589-35.594 31.771-39.626 1.941-40.537 35.423-72.798 76.441-72.798 14.77 0 28.559 4.183 40.247 11.437 7.245-6.734 16.951-10.857 27.628-10.857.58 0 1.151.01 1.721.04-9.506 13.179-15.39 29.149-16.231 46.441-20.604 4.573-36.004 22.945-36.004 44.92 0 4.793.73 9.416 2.091 13.759-23.936 15.44-39.786 42.328-39.786 72.928 0 47.912 38.846 86.758 86.758 86.758z" fill="#2b4d66"/><path d="m383.513 504.5h-253.568c20.584-34.795 55.076-60.385 95.826-69.106v-53.651h61.915v53.651c40.752 8.721 75.243 34.311 95.827 69.106z" fill="#aa7a63"/><g fill="#986b54"><path d="m225.774 381.739h61.911v22.034h-61.911z"/><path d="m243.65 381.739v53.655c-17.221 8.716-31.791 34.313-40.487 69.106h-73.218c20.584-34.793 55.076-60.39 95.823-69.106v-53.655z"/><g><circle cx="119.119" cy="272.233" r="39.64"/><circle cx="394.346" cy="272.233" r="39.64"/></g></g><path d="m374.492 196.256v79.152c0 59.93-48.582 108.512-108.512 108.512h-18.492c-59.93 0-108.522-48.582-108.522-108.512v-79.152c4.353 1.461 9.016 2.262 13.859 2.262 20.604 0 37.835-14.409 42.188-33.692 7.245 5.474 16.271 8.726 26.047 8.726 14.81 0 27.869-7.445 35.674-18.782 7.795 11.338 20.854 18.782 35.663 18.782 9.776 0 18.802-3.252 26.047-8.726 4.353 19.283 21.584 33.692 42.188 33.692 4.844 0 9.507-.801 13.86-2.262z" fill="#aa7a63"/><path d="m289.266 381.409c-7.495 1.651-15.29 2.512-23.285 2.512h-18.492c-59.93 0-108.522-48.582-108.522-108.512v-79.152c4.353 1.461 9.016 2.262 13.859 2.262 20.604 0 37.835-14.409 42.188-33.692 2.762 2.081 5.794 3.852 9.016 5.233v105.35c0 51.933 36.494 95.352 85.236 105.999z" fill="#986b54"/></g><g><path d="m466.05 203.952c-4.069-.8-8.008 1.845-8.809 5.908-2.927 14.853-10.899 28.47-22.286 38.479-8.208-13.9-23.335-23.249-40.613-23.249-4.188 0-8.342.562-12.35 1.647v-25.417c7.934-3.672 14.755-9.305 19.925-16.52 2.412-3.367 1.639-8.052-1.729-10.465-3.366-2.413-8.052-1.639-10.465 1.728-4.344 6.063-10.607 10.712-17.618 13.084-3.699 1.242-7.56 1.872-11.473 1.872-16.564 0-31.229-11.71-34.871-27.844-.562-2.485-2.346-4.516-4.738-5.392s-5.066-.477-7.1 1.059c-6.243 4.717-13.687 7.21-21.525 7.21-11.775 0-22.798-5.806-29.483-15.532-1.399-2.035-3.71-3.25-6.178-3.251-.001 0-.001 0-.002 0-2.468 0-4.778 1.214-6.178 3.247-6.697 9.728-17.723 15.536-29.496 15.536-4.898 0-9.629-.969-14.076-2.885-2.635-1.13-5.144-2.586-7.457-4.33-2.034-1.533-4.706-1.93-7.096-1.052-2.391.876-4.173 2.906-4.734 5.39-3.642 16.134-18.308 27.844-34.872 27.844-3.913 0-7.772-.63-11.455-1.865-7.024-2.377-13.06-6.817-17.455-12.84-2.442-3.345-7.133-4.08-10.479-1.638s-4.079 7.133-1.638 10.479c5.137 7.04 11.865 12.551 19.667 16.164v25.42c-4.009-1.087-8.163-1.649-12.35-1.649-17.285 0-32.417 9.357-40.623 23.266-14.909-13.032-23.594-31.88-23.594-51.955 0-23.548 11.838-45.245 31.666-58.038 2.835-1.829 4.1-5.326 3.091-8.545-1-3.191-1.507-6.518-1.507-9.887 0-15.395 10.89-28.982 25.893-32.308 3.303-.732 5.707-3.585 5.868-6.964 1.763-36.819 32.048-65.659 68.949-65.659 12.881 0 25.431 3.565 36.293 10.311 2.876 1.786 6.589 1.425 9.067-.881 6.13-5.707 14.128-8.85 22.52-8.85 8.377 0 16.372 3.144 22.514 8.853 2.477 2.302 6.189 2.662 9.063.878 10.862-6.746 23.412-10.311 36.293-10.311 36.892 0 67.178 28.841 68.949 65.66.162 3.378 2.565 6.229 5.867 6.962 14.998 3.327 25.884 16.914 25.884 32.308 0 3.392-.504 6.718-1.497 9.887-1.009 3.22.257 6.717 3.093 8.546 15.678 10.11 26.735 26.353 30.337 44.562.803 4.063 4.751 6.709 8.812 5.902 4.063-.804 6.706-4.749 5.902-8.812-4.036-20.411-15.756-38.787-32.469-51.176.546-2.919.821-5.899.821-8.909 0-20.464-13.247-38.733-32.201-45.4-4.728-42.21-40.412-74.53-83.498-74.53-13.851 0-27.396 3.392-39.493 9.851-8.203-6.011-18.092-9.271-28.377-9.271-10.299 0-20.191 3.259-28.389 9.27-12.096-6.458-25.641-9.85-39.491-9.85-43.096 0-78.78 32.319-83.5 74.53-18.959 6.666-32.21 24.935-32.21 45.4 0 3 .277 5.979.828 8.906-21.437 15.835-34.078 40.708-34.078 67.563 0 26.292 12.23 50.854 32.968 66.727-.579 2.947-.89 5.988-.89 9.102 0 15.205 7.243 28.743 18.452 37.368-.029.463-.049.928-.049 1.398v15.973c0 12.209 9.933 22.142 22.142 22.142s22.142-9.933 22.142-22.142v-10.227c1.3-.454 2.58-.966 3.837-1.535 12.992 35.461 42.828 62.868 79.769 72.486v16.8c-20.451 7.613-32.927 21.068-32.927 35.946 0 .526.029 1.049.06 1.573-6.085 3.172-11.982 6.762-17.671 10.768-3.387 2.385-4.199 7.064-1.814 10.451 1.461 2.074 3.781 3.182 6.139 3.182 1.492 0 3-.444 4.312-1.368 4.514-3.179 9.177-6.062 13.969-8.66 10.432 15.935 36.072 26.498 66.388 26.498 30.319 0 55.962-10.562 66.389-26.472 18.191 9.855 34.136 23.703 46.481 40.591h-225.74c3.398-4.647 7.083-9.083 11.024-13.269 2.839-3.016 2.697-7.762-.319-10.602-3.015-2.839-7.762-2.696-10.602.319-7.794 8.277-14.683 17.44-20.475 27.233-1.371 2.319-1.394 5.194-.059 7.534s3.821 3.784 6.515 3.784h253.57c2.693 0 5.181-1.444 6.515-3.785 1.335-2.34 1.312-5.215-.06-7.534-14.87-25.137-36.481-45.374-61.909-58.627.032-.538.061-1.077.061-1.617 0-14.877-12.477-28.333-32.928-35.946v-16.798c36.939-9.616 66.776-37.022 79.768-72.485 1.257.569 2.537 1.081 3.837 1.536v10.223c0 12.209 9.933 22.142 22.142 22.142s22.142-9.933 22.142-22.142v-15.973c0-.47-.02-.935-.049-1.398 11.209-8.625 18.452-22.164 18.452-37.368 0-3.119-.312-6.165-.893-9.116 16.12-12.393 27.45-30.461 31.369-50.352.802-4.063-1.844-8.007-5.907-8.807zm-346.387 123.015c0 3.938-3.204 7.142-7.142 7.142s-7.142-3.204-7.142-7.142v-9.646c4.348 1.327 8.959 2.047 13.736 2.047.183 0 .364-.009.547-.011v7.61zm-.547-22.599c-2.012 0-3.978-.195-5.889-.55 3.811-.356 6.794-3.561 6.794-7.464 0-4.142-3.358-7.5-7.5-7.5-6.117 0-11.662 2.494-15.673 6.517-6.078-5.851-9.872-14.059-9.872-23.142 0-17.722 14.418-32.139 32.14-32.139 4.253 0 8.455.845 12.35 2.464v16.785c-3.006-1.225-6.323-2.039-9.934-2.401-7.458-.746-13.563.676-14.235.84-4.009.984-6.451 5.018-5.487 9.032s5.009 6.492 9.028 5.544c.045-.01 4.479-1.031 9.553-.452 5.076.581 8.726 2.457 11.103 5.713.148 7.873 1.084 15.556 2.733 22.975-4.627 2.475-9.769 3.778-15.111 3.778zm99.153 116.361v8.716c-5.617 1.433-11.123 3.176-16.509 5.221 2.534-5.192 8.354-10.105 16.509-13.937zm93.451 13.985c-5.391-2.055-10.906-3.823-16.531-5.264v-8.72c8.18 3.842 14.01 8.774 16.531 13.984zm-25.6 8.01c7.997 1.711 15.778 4.132 23.27 7.19-8.956 11.355-32.119 17.967-52.666 17.967-25.336 0-44.738-8.426-52.568-18.037 7.472-3.036 15.212-5.416 23.181-7.119 3.46-.74 5.933-3.796 5.933-7.334v-44.842c4.661.572 9.406.872 14.219.872h18.492c4.81 0 9.551-.3 14.209-.871v44.841c-.001 3.537 2.471 6.593 5.93 7.333zm-20.14-66.304h-18.492c-55.704 0-101.022-45.313-101.022-101.012v-69.79c2.103.263 4.225.399 6.359.399 20.448 0 38.306-11.91 46.325-29.938.631.302 1.269.592 1.911.867 6.319 2.724 13.048 4.104 20 4.104 13.469 0 26.248-5.352 35.67-14.652 9.417 9.301 22.193 14.652 35.667 14.652 7.698 0 15.131-1.695 21.916-4.958 8.021 18.021 25.875 29.924 46.318 29.924 2.133 0 4.255-.135 6.359-.399v69.79c.001 55.7-45.313 101.013-101.011 101.013zm142.098-49.453c0 3.938-3.204 7.142-7.142 7.142s-7.142-3.204-7.142-7.142v-7.61c.183.002.364.011.547.011 4.777 0 9.388-.72 13.736-2.047v9.646zm8.531-31.596c-4.011-4.024-9.556-6.517-15.673-6.517-4.143 0-7.5 3.358-7.5 7.5 0 3.904 2.983 7.108 6.794 7.464-1.911.355-3.877.55-5.889.55-5.351 0-10.492-1.302-15.111-3.776 1.648-7.417 2.585-15.097 2.733-22.968 2.377-3.262 6.029-5.141 11.11-5.723 5.023-.572 9.422.422 9.551.452 4.016.967 8.056-1.492 9.04-5.504.987-4.023-1.474-8.084-5.497-9.071-.671-.165-6.775-1.585-14.235-.84-3.614.363-6.933 1.177-9.94 2.404v-16.792c3.894-1.617 8.095-2.46 12.35-2.46 17.722 0 32.14 14.417 32.14 32.139-.001 9.083-3.794 17.291-9.873 23.142z"/><path d="m200.8 237.443c-2.842 0-5.468 1.256-7.619 3.366l-4.962-3.53c-3.375-2.402-8.058-1.611-10.459 1.764s-1.611 8.058 1.764 10.459l8.15 5.798c0 .045-.005.088-.005.134 0 9.92 5.891 17.991 13.131 17.991s13.131-8.071 13.131-17.991-5.89-17.991-13.131-17.991z"/><path d="m325.247 237.28-4.962 3.53c-2.151-2.11-4.778-3.366-7.62-3.366-7.24 0-13.131 8.071-13.131 17.991s5.891 17.991 13.131 17.991c7.241 0 13.132-8.071 13.132-17.991 0-.045-.005-.089-.005-.134l8.15-5.798c3.375-2.401 4.165-7.083 1.764-10.458-2.401-3.376-7.081-4.167-10.459-1.765z"/><path d="m180.167 206.44c-2.929 2.929-2.929 7.678 0 10.606 2.929 2.929 7.678 2.929 10.606 0 5.957-5.956 15.648-5.956 21.605 0 1.464 1.464 3.384 2.197 5.303 2.197s3.839-.732 5.303-2.197c2.929-2.929 2.929-7.678 0-10.606-11.804-11.806-31.013-11.806-42.817 0z"/><path d="m313.02 212.572c4.081 0 7.918 1.589 10.804 4.475 1.464 1.465 3.384 2.197 5.303 2.197s3.839-.732 5.304-2.197c2.929-2.929 2.929-7.678-.001-10.606-5.719-5.719-13.321-8.868-21.409-8.868-8.087 0-15.69 3.149-21.409 8.868-2.929 2.929-2.929 7.678.001 10.606 2.928 2.93 7.677 2.929 10.606 0 2.884-2.886 6.721-4.475 10.801-4.475z"/><path d="m281.933 281.247c-3.969-1.179-8.146 1.084-9.324 5.055-2.065 6.955-8.594 11.812-15.876 11.812-7.274 0-13.804-4.861-15.878-11.821-1.184-3.97-5.361-6.228-9.331-5.044s-6.228 5.361-5.044 9.331c3.956 13.268 16.396 22.535 30.253 22.535 13.874 0 26.315-9.27 30.255-22.543 1.18-3.971-1.084-8.146-5.055-9.325z"/></g></g></svg>