<svg id="Capa_1" enable-background="new 0 0 512 512" height="512" viewBox="0 0 512 512" width="512" xmlns="http://www.w3.org/2000/svg"><g><g><path d="m401.377 151.82v252.48h-30.64l-7.66-39.24-20.6 39.24h-170.85l-20.6-39.24-7.66 39.24h-30.64v-252.48c0-79.7 64.62-144.32 144.32-144.32 79.71 0 144.33 64.62 144.33 144.32z" fill="#61a2f9"/><path d="m222.517 151.82v196.613l26.886 55.867h-77.776l-20.6-39.24-7.66 39.24h-30.64v-252.48c0-79.7 64.62-144.32 144.32-144.32 19.44 0 37.98 3.84 54.9 10.81-52.48 21.6-89.43 73.24-89.43 133.51z" fill="#5490f9"/><path d="m382.632 504.5h-253.4c20.571-34.772 55.039-60.346 95.763-69.06v-53.616h61.874v53.616c40.723 8.714 75.192 34.288 95.763 69.06z" fill="#ffddce"/><path d="m242.861 381.82v53.62c-17.21 8.71-31.77 34.29-40.46 69.06h-73.17c20.57-34.77 55.04-60.35 95.76-69.06v-53.62z" fill="#ffcbbe"/><g fill="#ffcbbe"><circle cx="118.412" cy="272.386" r="39.614"/><circle cx="393.458" cy="272.386" r="39.614"/></g><g><path d="m373.617 222.62v52.94c0 51.9-36.46 95.29-85.17 105.93-7.49 1.65-15.28 2.51-23.27 2.51h-18.48c-59.89 0-108.45-48.55-108.45-108.44v-52.94h35.92l21.29-67.73 7.81 20.93 17.46 46.8h70.41l25.27-67.73 21.29 67.73z" fill="#ffddce"/></g><path d="m288.447 381.49c-7.49 1.65-15.28 2.51-23.27 2.51h-18.48c-59.89 0-108.45-48.55-108.45-108.44v-52.94h35.92l21.29-67.73 7.81 20.93v99.74c0 51.9 36.47 95.29 85.18 105.93z" fill="#ffcbbe"/><g><path d="m223.342 471.911c-17.998 0-32.589 14.591-32.589 32.589h65.178c0-17.998-14.59-32.589-32.589-32.589z" fill="#365e7d"/><path d="m234.983 474.05c-12.25 4.69-20.95 16.55-20.95 30.45h-23.28c0-18 14.59-32.59 32.59-32.59 4.1 0 8.03.76 11.64 2.14z" fill="#2b4d66"/><path d="m288.521 471.911c-17.998 0-32.589 14.591-32.589 32.589h65.178c0-17.998-14.591-32.589-32.589-32.589z" fill="#365e7d"/><path d="m300.161 474.05c-12.25 4.69-20.95 16.55-20.95 30.45h-23.28c0-18 14.59-32.59 32.59-32.59 4.1 0 8.03.76 11.64 2.14z" fill="#2b4d66"/></g></g><g><path d="m440.567 272.382c0-20.577-13.265-38.104-31.689-44.507v-76.055c-.001-83.714-68.111-151.82-151.831-151.82-83.714 0-151.82 68.106-151.82 151.82v75.357c-18.234 5.386-32.16 21.615-33.768 41.313-.337 4.128 2.736 7.749 6.865 8.085.208.017.414.025.618.025 3.866 0 7.147-2.97 7.467-6.89 1.348-16.509 15.406-29.44 32.005-29.44 4.241 0 8.436.841 12.33 2.453v16.769c-3.001-1.222-6.314-2.034-9.919-2.396-7.457-.749-13.557.675-14.228.839-4.023.987-6.483 5.048-5.496 9.071.987 4.022 5.045 6.483 9.071 5.496.041-.01 4.271-.97 9.153-.482 5.254.528 9.015 2.414 11.447 5.744.147 7.867 1.083 15.545 2.73 22.958-4.616 2.476-9.75 3.777-15.089 3.777-9.57 0-18.574-4.227-24.704-11.596-2.649-3.184-7.377-3.619-10.562-.97-3.184 2.649-3.619 7.378-.97 10.562 6.094 7.326 14.132 12.526 23.049 15.12v86.685c0 4.142 3.358 7.5 7.5 7.5h30.64c3.588 0 6.674-2.542 7.361-6.063l3.573-18.304 10.685 20.354c1.296 2.468 3.853 4.014 6.641 4.014h45.87v17.699c-39.497 10.115-73.78 35.796-94.724 71.181-1.372 2.318-1.396 5.195-.062 7.535s3.822 3.785 6.516 3.785h253.4c2.693 0 5.181-1.445 6.515-3.785 1.335-2.34 1.312-5.216-.06-7.534-20.934-35.384-55.215-61.066-94.716-71.182v-17.7h48.11c2.787 0 5.345-1.546 6.641-4.014l10.685-20.354 3.573 18.304c.688 3.521 3.773 6.063 7.361 6.063h30.641c4.143 0 7.5-3.358 7.5-7.5v-87.41c18.425-6.403 31.691-23.93 31.691-44.507zm-320.34-47.052v-73.51c0-75.443 61.377-136.82 136.82-136.82 75.448 0 136.83 61.377 136.83 136.82v73.46c-.142-.001-.282-.011-.424-.011-4.184 0-8.334.562-12.34 1.647v-4.296c0-4.142-3.357-7.5-7.5-7.5h-30.417l-2.108-6.701c-1.243-3.951-5.451-6.147-9.405-4.903-3.951 1.243-6.146 5.454-4.903 9.405l3.76 11.95c.982 3.124 3.879 5.249 7.154 5.249h28.42v45.44c0 23.16-8.038 45.782-22.634 63.701-14.396 17.674-34.51 30.069-56.649 34.905-7.031 1.549-14.317 2.334-21.656 2.334h-18.48c-55.664 0-100.95-45.281-100.95-100.94v-45.44h28.42c3.276 0 6.172-2.126 7.155-5.251l14.742-46.899 17.636 47.272c1.094 2.934 3.896 4.878 7.027 4.878h70.41c3.131 0 5.933-1.945 7.027-4.878l17.637-47.272 2.021 6.43c1.242 3.952 5.454 6.146 9.403 4.905 3.952-1.242 6.148-5.453 4.905-9.404l-8.57-27.26c-.96-3.056-3.756-5.164-6.957-5.248-3.225-.059-6.104 1.875-7.225 4.876l-23.449 62.852h-59.996l-23.45-62.852c-1.12-3.001-4.01-4.954-7.224-4.875-3.202.084-5.997 2.193-6.958 5.249l-19.64 62.479h-30.416c-4.142 0-7.5 3.358-7.5 7.5v4.293c-3.423-.927-6.953-1.448-10.516-1.585zm55.933 171.47-18.493-35.226c-1.48-2.818-4.578-4.396-7.727-3.935-3.15.461-5.666 2.86-6.275 5.984l-6.477 33.177h-16.962v-77.336c6.131-.23 12.056-1.635 17.549-4.124 12.986 35.437 42.804 62.824 79.721 72.435v9.025zm23.238 100.2c3.197-10.182 12.722-17.589 23.944-17.589s20.748 7.407 23.944 17.589zm65.178 0c3.196-10.182 12.722-17.589 23.944-17.589s20.748 7.407 23.944 17.589zm104.135 0h-40.816c-3.523-18.531-19.833-32.589-39.375-32.589-13.418 0-25.309 6.633-32.589 16.785-7.281-10.152-19.171-16.785-32.589-16.785-19.541 0-35.852 14.058-39.375 32.589h-40.821c20.174-27.582 49.933-47.065 83.419-54.226 3.459-.74 5.932-3.796 5.932-7.334v-44.81c4.654.571 9.391.87 14.197.87h18.48c4.762 0 9.506-.299 14.192-.872v44.812c0 3.538 2.472 6.594 5.932 7.334 33.489 7.162 63.246 26.645 83.413 54.226zm25.166-100.2h-16.963l-6.477-33.177c-.61-3.124-3.126-5.523-6.275-5.984-3.146-.459-6.246 1.116-7.727 3.935l-18.491 35.226h-43.577v-9.024c23.716-6.163 45.155-19.904 60.743-39.041 8.175-10.037 14.545-21.363 18.941-33.413 6.048 2.743 12.616 4.174 19.402 4.174.142 0 .282-.01.424-.011zm-.424-92.304c-5.346 0-10.492-1.307-15.122-3.79 1.667-7.489 2.581-15.16 2.733-22.894 2.375-3.28 6.028-5.17 11.122-5.753 5.019-.572 9.403.419 9.542.451 4.014.964 8.056-1.491 9.041-5.504.987-4.023-1.474-8.084-5.497-9.071-.67-.165-6.771-1.587-14.228-.839-3.61.363-6.927 1.176-9.932 2.401v-16.766c3.892-1.618 8.09-2.462 12.34-2.462 17.707 0 32.113 14.406 32.113 32.113s-14.405 32.114-32.112 32.114z"/><path d="m200.039 237.62c-2.838 0-5.461 1.254-7.611 3.361l-4.959-3.528c-3.375-2.401-8.058-1.611-10.459 1.764s-1.611 8.058 1.764 10.459l8.147 5.796c0 .043-.005.085-.005.128 0 9.914 5.887 17.979 13.123 17.979s13.123-8.065 13.123-17.979-5.887-17.98-13.123-17.98z"/><path d="m319.441 240.98c-2.149-2.107-4.773-3.361-7.611-3.361-7.235 0-13.122 8.065-13.122 17.979s5.887 17.979 13.122 17.979c7.236 0 13.123-8.065 13.123-17.979 0-.043-.005-.085-.005-.128l8.147-5.796c3.375-2.401 4.165-7.083 1.764-10.459-2.4-3.375-7.082-4.165-10.459-1.764z"/><path d="m281.12 281.39c-3.968-1.178-8.146 1.084-9.324 5.055-2.063 6.948-8.586 11.801-15.861 11.801-7.267 0-13.79-4.856-15.863-11.809-1.184-3.969-5.361-6.229-9.331-5.044-3.969 1.184-6.228 5.361-5.044 9.331 3.954 13.261 16.388 22.523 30.238 22.523 13.866 0 26.302-9.265 30.24-22.531 1.18-3.972-1.084-8.147-5.055-9.326z"/></g></g></svg>