<svg xmlns="http://www.w3.org/2000/svg" width="44" height="44" fill="none" viewBox="0 0 44 44"><g clip-path="url(#clip0)"><path fill="#4188AF" d="M42.2808 20.2812H5.88128L11.911 14.2807C12.5838 13.6111 12.5864 12.5229 11.9168 11.8501C11.2471 11.1772 10.1588 11.1747 9.48601 11.8442L0.505201 20.7817C0.504599 20.7823 0.504169 20.7829 0.503654 20.7834C-0.167432 21.453 -0.169581 22.5448 0.503482 23.2166C0.504083 23.2171 0.504513 23.2177 0.505029 23.2182L9.48584 32.1557C10.1586 32.8252 11.2469 32.8229 11.9166 32.1499C12.5862 31.4771 12.5836 30.3889 11.9108 29.7192L5.88128 23.7187H42.2808C43.2301 23.7187 43.9995 22.9493 43.9995 22C43.9995 21.0507 43.2301 20.2812 42.2808 20.2812Z"/></g><defs><clipPath id="clip0"><rect width="44" height="44" fill="#fff"/></clipPath></defs></svg>