<svg width="44" height="44" viewBox="0 0 44 44" fill="none" xmlns="http://www.w3.org/2000/svg">
<g clip-path="url(#clip0)">
<path d="M19.9113 10.4898C19.983 10.4898 20.0559 10.4778 20.1273 10.4523C22.3677 9.65579 25.9261 9.6515 27.8977 10.4432C28.2279 10.5758 28.6032 10.4156 28.7359 10.0852C28.8685 9.75488 28.7083 9.37959 28.3779 9.24699C26.0846 8.32617 22.2707 8.32213 19.6954 9.23788C19.3599 9.35716 19.1848 9.72566 19.304 10.0611C19.3979 10.3251 19.6462 10.4898 19.9113 10.4898V10.4898Z" fill="white"/>
<path d="M26.7202 26.0662L23.473 29.3129C23.2213 29.5646 23.2212 29.9727 23.4729 30.2244C23.5987 30.3503 23.7637 30.4132 23.9287 30.4132C24.0936 30.4132 24.2586 30.3503 24.3845 30.2245L27.6317 26.9778C27.8834 26.726 27.8835 26.318 27.6318 26.0663C27.3802 25.8145 26.972 25.8145 26.7202 26.0662Z" fill="white"/>
<path d="M26.0843 23.0873C25.8327 22.8355 25.4246 22.8355 25.1729 23.0872L19.9232 28.3359C19.6715 28.5876 19.6714 28.9957 19.9231 29.2474C20.0489 29.3733 20.2139 29.4362 20.3789 29.4362C20.5438 29.4362 20.7088 29.3733 20.8347 29.2475L26.0843 23.9987C26.3359 23.7471 26.336 23.339 26.0843 23.0873Z" fill="white"/>
<path d="M24.0226 17.2549C18.5791 17.2549 14.1504 21.6828 14.1504 27.1255C14.1504 32.5696 18.5791 36.9986 24.0226 36.9986C29.4676 36.9986 33.8973 32.5696 33.8973 27.1255C33.8973 21.6828 29.4676 17.2549 24.0226 17.2549V17.2549ZM24.0226 35.7095C19.2899 35.7095 15.4395 31.8588 15.4395 27.1255C15.4395 22.3936 19.2899 18.5439 24.0226 18.5439C28.7568 18.5439 32.6082 22.3936 32.6082 27.1255C32.6082 31.8588 28.7568 35.7095 24.0226 35.7095V35.7095Z" fill="white"/>
<path d="M40.7351 12.8136L33.1577 10.9629C33.1558 10.9624 33.1538 10.9623 33.1519 10.9618C32.2918 8.3264 31.2867 6.0842 30.4013 4.61802C30.3677 4.56251 30.3351 4.50622 30.3024 4.44993C30.0086 3.94419 29.5646 3.17969 28.442 3.17969H19.6066C18.484 3.17969 18.04 3.94419 17.7462 4.45002C17.7135 4.50622 17.6809 4.56251 17.647 4.61837C16.7402 6.11798 15.7067 8.43322 14.8321 11.155L12.0202 11.4654L11.8491 9.44479C11.786 8.73048 11.1551 8.20041 10.444 8.26263L4.55718 8.75944C3.84484 8.81796 3.31289 9.44634 3.37124 10.1623L3.55979 12.3993L2.36225 12.5315C0.993524 12.6815 0 13.7029 0 14.9598V16.9376V35.0439V37.4601C0 38.8012 1.09123 39.8924 2.43255 39.8924H19.0674C20.6051 40.4911 22.2763 40.8203 24.0231 40.8203C25.77 40.8203 27.4412 40.4911 28.9789 39.8924H35.3824C35.7383 39.8924 36.0269 39.6038 36.0269 39.2478C36.0269 38.8919 35.7383 38.6033 35.3824 38.6033H31.4861C33.7954 37.0971 35.6241 34.9137 36.6886 32.3371C36.7941 32.3458 36.8996 32.3517 37.0048 32.3517C39.1333 32.3517 40.8648 30.6203 40.8648 28.4921C40.8648 26.5298 39.394 24.9057 37.4975 24.6627C37.1059 22.5156 36.2117 20.5419 34.9419 18.8677C34.6664 16.6344 34.182 14.4274 33.5936 12.3962L40.3308 14.0418L40.4305 14.0661C41.2699 14.2702 41.8763 14.4177 42.2028 14.7684C42.5543 15.1459 42.711 15.8833 42.711 17.1591V37.46C42.711 38.0903 42.1969 38.6032 41.565 38.6032H38.3568C38.0009 38.6032 37.7123 38.8918 37.7123 39.2477C37.7123 39.6037 38.0009 39.8923 38.3568 39.8923H41.565C42.9077 39.8923 44.0001 38.8011 44.0001 37.46V17.1592C44 13.7657 42.8805 13.3354 40.7351 12.8136V12.8136ZM15.9171 11.9905C15.9286 11.9619 15.9375 11.9322 15.9449 11.9019C16.8066 9.13662 17.8443 6.7833 18.7499 5.28576C18.7877 5.22354 18.8244 5.16046 18.861 5.09747C19.1569 4.58786 19.2613 4.46875 19.6067 4.46875H28.4422C28.7877 4.46875 28.8919 4.58786 29.1879 5.09738C29.2245 5.16037 29.2612 5.22345 29.2985 5.28507C30.1879 6.75778 31.2039 9.05326 32.0553 11.7511C32.0607 11.7721 32.0671 11.7927 32.0746 11.8127C32.5945 13.4686 33.0513 15.2741 33.3787 17.1335C30.9285 14.8387 27.6374 13.4312 24.0231 13.4312C20.4093 13.4312 17.1185 14.8384 14.6684 17.1328C14.9847 15.3392 15.4205 13.5965 15.9171 11.9905V11.9905ZM4.66245 10.0442H4.66288C4.6634 10.0442 4.664 10.0441 4.6646 10.0441L10.556 9.54697C10.556 9.54697 10.5645 9.55066 10.565 9.55599L10.7386 11.6066L4.84155 12.2568L4.65601 10.0557C4.65549 10.05 4.66194 10.0445 4.66245 10.0442V10.0442ZM2.43255 38.6033C1.80202 38.6033 1.28906 38.0904 1.28906 37.4601V35.6885H5.69198C6.69084 35.6885 7.50337 34.8749 7.50337 33.8748V27.2305C7.50337 26.8745 7.2148 26.586 6.85884 26.586C6.50289 26.586 6.21431 26.8745 6.21431 27.2305V33.8748C6.21431 34.1641 5.97996 34.3994 5.69198 34.3994H1.28906V17.5821H5.69198C5.98005 17.5821 6.21431 17.8164 6.21431 18.1043V24.2566C6.21431 24.6126 6.50289 24.9012 6.85884 24.9012C7.2148 24.9012 7.50337 24.6126 7.50337 24.2566V18.1043C7.50337 17.1056 6.69075 16.2931 5.69198 16.2931H1.28906V14.9598C1.28906 14.2632 1.91821 13.8769 2.50327 13.8127L14.4247 12.4969C13.8496 14.4991 13.3763 16.6701 13.1044 18.8677C11.3619 21.1651 10.3263 24.0266 10.3263 27.1257C10.3263 31.9265 12.8103 36.1574 16.5602 38.6033H2.43255ZM24.0231 39.5312C17.1815 39.5312 11.6154 33.9662 11.6154 27.1257C11.6154 20.2853 17.1815 14.7202 24.0231 14.7202C30.8648 14.7202 36.4309 20.2853 36.4309 27.1257C36.4309 33.9662 30.8648 39.5312 24.0231 39.5312V39.5312ZM39.5758 28.4921C39.5758 29.863 38.4968 30.9866 37.1433 31.0588C37.5177 29.8124 37.7199 28.4923 37.7199 27.1257C37.7199 26.7494 37.704 26.3768 37.6741 26.0081C38.7681 26.3038 39.5758 27.3052 39.5758 28.4921Z" fill="white"/>
</g>
<defs>
<clipPath id="clip0">
<rect width="44" height="44" fill="white"/>
</clipPath>
</defs>
</svg>
