<svg xmlns="http://www.w3.org/2000/svg" width="469.3330078125" height="469.3330078125" style=""><rect id="backgroundrect" width="100%" height="100%" x="0" y="0" fill="none" stroke="none"/><g class="currentLayer" style=""><title>Layer 1</title><g fill="#eb1a1a" id="svg_1" class="" transform="rotate(44.2934, 234.666, 234.666)" fill-opacity="1"><path d="m437.332031 192h-405.332031c-17.664062 0-32 14.335938-32 32v21.332031c0 17.664063 14.335938 32 32 32h405.332031c17.664063 0 32-14.335937 32-32v-21.332031c0-17.664062-14.335937-32-32-32zm0 0" id="svg_2" fill="#eb1a1a" fill-opacity="1"/><path d="m192 32v405.332031c0 17.664063 14.335938 32 32 32h21.332031c17.664063 0 32-14.335937 32-32v-405.332031c0-17.664062-14.335937-32-32-32h-21.332031c-17.664062 0-32 14.335938-32 32zm0 0" id="svg_3" fill="#eb1a1a" fill-opacity="1"/></g></g></svg>