<svg xmlns="http://www.w3.org/2000/svg" width="25" height="25" fill="none" viewBox="0 0 25 25"><g clip-path="url(#clip0)"><path fill="#fff" d="M23.074 15.6101C22.7301 15.6101 22.4514 15.8888 22.4514 16.2327V21.761C22.4502 22.7922 21.6147 23.6279 20.5835 23.6289H3.11315C2.08192 23.6279 1.24648 22.7922 1.24526 21.761V5.53588C1.24648 4.50489 2.08192 3.6692 3.11315 3.66799H8.64142C8.98532 3.66799 9.26405 3.38926 9.26405 3.04536C9.26405 2.7017 8.98532 2.42273 8.64142 2.42273H3.11315C1.39459 2.42468 0.00194572 3.81732 0 5.53588V21.7612C0.00194572 23.4798 1.39459 24.8724 3.11315 24.8744H20.5835C22.3021 24.8724 23.6947 23.4798 23.6967 21.7612V16.2327C23.6967 15.8888 23.4179 15.6101 23.074 15.6101V15.6101Z"/><path fill="#fff" d="M23.4501 0.820667C22.3559 -0.273556 20.5819 -0.273556 19.4877 0.820667L8.37959 11.9288C8.30346 12.0049 8.2485 12.0993 8.2198 12.2029L6.75905 17.4765C6.69897 17.6927 6.76002 17.9243 6.9186 18.0831C7.07742 18.2416 7.30896 18.3027 7.52517 18.2429L12.7988 16.7819C12.9024 16.7532 12.9968 16.6982 13.0729 16.6221L24.1808 5.51374C25.2733 4.41879 25.2733 2.64624 24.1808 1.55128L23.4501 0.820667ZM9.73624 12.3335L18.8274 3.24211L21.7593 6.17407L12.668 15.2654L9.73624 12.3335ZM9.15058 13.5087L11.493 15.8513L8.25287 16.749L9.15058 13.5087ZM23.3003 4.6333L22.64 5.29363L19.7078 2.36143L20.3684 1.7011C20.9762 1.09331 21.9617 1.09331 22.5695 1.7011L23.3003 2.43172C23.9071 3.04024 23.9071 4.02502 23.3003 4.6333V4.6333Z"/></g><defs><clipPath id="clip0"><rect width="25" height="25" fill="#fff"/></clipPath></defs></svg>