<svg width="25" height="25" viewBox="0 0 25 25" fill="none" xmlns="http://www.w3.org/2000/svg">
<path d="M12.5 18.3268C12.2303 18.3268 12.0117 18.5454 12.0117 18.8151C12.0117 18.8157 12.0117 18.8164 12.0117 18.817C12.0117 18.8177 12.0117 18.8183 12.0117 18.819V18.8229C12.0117 19.0926 12.2303 19.3112 12.5 19.3112C12.7697 19.3112 12.9883 19.0926 12.9883 18.8229C12.9883 18.8222 12.9883 18.8216 12.9883 18.8209C12.9883 18.8202 12.9883 18.8197 12.9883 18.819C12.9883 18.8183 12.9883 18.8177 12.9883 18.817C12.9883 18.8164 12.9883 18.8157 12.9883 18.8151C12.9883 18.5454 12.7697 18.3268 12.5 18.3268Z" fill="white"/>
<path d="M20.2148 0H4.78516C2.14658 0 0 2.14658 0 4.78516V20.2148C0 22.8534 2.14658 25 4.78516 25H12.5C12.7697 25 12.9883 24.7814 12.9883 24.5117V20.7275C12.9883 20.4579 12.7697 20.2393 12.5 20.2393C12.2303 20.2393 12.0117 20.4579 12.0117 20.7275V24.0234H4.78516C2.68511 24.0234 0.976562 22.3149 0.976562 20.2148V4.78516C0.976562 2.68511 2.68511 0.976562 4.78516 0.976562H20.2148C22.3149 0.976562 24.0234 2.68511 24.0234 4.78516V20.2148C24.0234 22.3149 22.3149 24.0234 20.2148 24.0234H17.0898V15.4053H19.9209C20.1717 15.4053 20.3817 15.2154 20.4068 14.9659L20.7579 11.4769C20.7717 11.3396 20.7268 11.2028 20.6342 11.1005C20.5417 10.9981 20.4101 10.9397 20.2721 10.9397H17.0898V9.10767C17.0898 8.77607 17.1955 8.65278 17.4795 8.65278H20.2501C20.5198 8.65278 20.7384 8.43418 20.7384 8.1645V4.76313C20.7384 4.49346 20.5198 4.27485 20.2501 4.27485H16.6116C14.55 4.27485 13.4566 5.18042 12.9024 5.94009C12.1274 7.00249 12.0117 8.25718 12.0117 8.9105V10.9616H9.61909C9.34941 10.9616 9.13081 11.1802 9.13081 11.4499V14.917C9.13081 15.1867 9.34941 15.4053 9.61909 15.4053H12.0117V16.7969C12.0117 17.0666 12.2303 17.2852 12.5 17.2852C12.7696 17.2852 12.9882 17.0666 12.9882 16.7969V14.917C12.9882 14.6473 12.7696 14.4287 12.5 14.4287H10.1074V11.9381H12.5C12.7696 11.9381 12.9882 11.7195 12.9882 11.4499V8.91045C12.9882 7.81025 13.3413 5.25137 16.6116 5.25137H19.7619V7.67617H17.4795C16.8493 7.67617 16.1133 8.05107 16.1133 9.10762V11.428C16.1133 11.6977 16.3319 11.9163 16.6016 11.9163H19.7322L19.4793 14.4287H16.6016C16.3319 14.4287 16.1133 14.6473 16.1133 14.917V24.5117C16.1133 24.7814 16.3319 25 16.6016 25H20.2148C22.8534 25 25 22.8534 25 20.2148V4.78516C25 2.14658 22.8534 0 20.2148 0Z" fill="white"/>
<path d="M2.83203 5.00488C2.56235 5.00488 2.34375 5.22349 2.34375 5.49316V9.57031C2.34375 9.83999 2.56235 10.0586 2.83203 10.0586C3.10171 10.0586 3.32031 9.83999 3.32031 9.57031V5.49316C3.32031 5.22349 3.10171 5.00488 2.83203 5.00488Z" fill="white"/>
<path d="M2.83203 11.2003C2.56235 11.2003 2.34375 11.4189 2.34375 11.6886V11.6944C2.34375 11.964 2.56235 12.1826 2.83203 12.1826C3.10171 12.1826 3.32031 11.964 3.32031 11.6944V11.6886C3.32031 11.4189 3.10171 11.2003 2.83203 11.2003Z" fill="white"/>
</svg>
