<?xml version="1.0" encoding="iso-8859-1"?>
<!-- Generator: Adobe Illustrator 19.0.0, SVG Export Plug-In . SVG Version: 6.00 Build 0)  -->
<svg version="1.1" id="Capa_1" xmlns="http://www.w3.org/2000/svg" xmlns:xlink="http://www.w3.org/1999/xlink" x="0px" y="0px"
	 viewBox="0 0 512 512" style="enable-background:new 0 0 512 512;" xml:space="preserve">
<g>
	<g>
		<path d="M362,0H150C67.29,0,0,67.29,0,150v212c0,82.71,67.29,150,150,150h212c82.71,0,150-67.29,150-150V150
			C512,67.29,444.71,0,362,0z M492,362c0,71.682-58.318,130-130,130H150c-71.682,0-130-58.318-130-130V150
			C20,78.318,78.318,20,150,20h212c71.682,0,130,58.318,130,130V362z"/>
	</g>
</g>
<g>
	<g>
		<path d="M362,44H150C91.551,44,44,91.551,44,150v212c0,58.449,47.551,106,106,106h61c5.523,0,10-4.477,10-10s-4.477-10-10-10h-61
			c-47.42,0-86-38.58-86-86V150c0-47.42,38.58-86,86-86h212c47.42,0,86,38.58,86,86v212c0,47.42-38.58,86-86,86h-60.333
			c-5.523,0-10,4.477-10,10s4.477,10,10,10H362c58.449,0,106-47.551,106-106V150C468,91.551,420.449,44,362,44z"/>
	</g>
</g>
<g>
	<g>
		<path d="M263.07,450.93c-1.86-1.86-4.44-2.93-7.07-2.93s-5.21,1.07-7.07,2.93S246,455.37,246,458s1.07,5.21,2.93,7.07
			S253.37,468,256,468s5.21-1.07,7.07-2.93c1.86-1.86,2.93-4.44,2.93-7.07S264.93,452.79,263.07,450.93z"/>
	</g>
</g>
<g>
	<g>
		<path d="M175.83,155.71c-3.777-4.03-10.104-4.236-14.135-0.461l-0.443,0.417c-4.017,3.79-4.201,10.119-0.41,14.136
			c1.967,2.085,4.618,3.137,7.275,3.137c2.462,0,4.929-0.904,6.861-2.727l0.391-0.367C179.399,166.069,179.606,159.74,175.83,155.71
			z"/>
	</g>
</g>
<g>
	<g>
		<path d="M256,118c-21.964,0-43.824,5.291-63.217,15.301c-4.907,2.533-6.832,8.565-4.299,13.473
			c2.534,4.907,8.566,6.831,13.473,4.299C218.762,142.398,236.945,138,256,138c65.065,0,118,52.935,118,118s-52.935,118-118,118
			s-118-52.935-118-118c0-20.419,5.295-40.537,15.313-58.178c2.727-4.802,1.045-10.906-3.758-13.634
			c-4.803-2.726-10.906-1.045-13.634,3.758C124.197,208.592,118,232.125,118,256c0,76.093,61.907,138,138,138s138-61.907,138-138
			S332.093,118,256,118z"/>
	</g>
</g>
<g>
	<g>
		<path d="M256,166c-49.626,0-90,40.374-90,90c0,49.626,40.374,90,90,90c49.626,0,90-40.374,90-90C346,206.374,305.626,166,256,166z
			 M256,326c-38.598,0-70-31.402-70-70c0-38.598,31.402-70,70-70c38.598,0,70,31.402,70,70C326,294.598,294.598,326,256,326z"/>
	</g>
</g>
<g>
	<g>
		<path d="M387.25,86.75c-20.953,0-38,17.047-38,38s17.047,38,38,38s38-17.047,38-38S408.203,86.75,387.25,86.75z M387.25,142.75
			c-9.925,0-18-8.075-18-18s8.075-18,18-18s18,8.075,18,18S397.175,142.75,387.25,142.75z"/>
	</g>
</g>
<g>
</g>
<g>
</g>
<g>
</g>
<g>
</g>
<g>
</g>
<g>
</g>
<g>
</g>
<g>
</g>
<g>
</g>
<g>
</g>
<g>
</g>
<g>
</g>
<g>
</g>
<g>
</g>
<g>
</g>
</svg>
