<svg xmlns="http://www.w3.org/2000/svg" width="25" height="25" fill="none" viewBox="0 0 25 25"><path fill="#fff" d="M17.6758 0H7.32422C3.28564 0 0 3.28564 0 7.32422V17.6758C0 21.7144 3.28564 25 7.32422 25H17.6758C21.7144 25 25 21.7144 25 17.6758V7.32422C25 3.28564 21.7144 0 17.6758 0ZM24.0234 17.6758C24.0234 21.1759 21.1759 24.0234 17.6758 24.0234H7.32422C3.82412 24.0234 0.976562 21.1759 0.976562 17.6758V7.32422C0.976562 3.82412 3.82412 0.976562 7.32422 0.976562H17.6758C21.1759 0.976562 24.0234 3.82412 24.0234 7.32422V17.6758Z"/><path fill="#fff" d="M17.6758 2.14844H7.32422C4.47026 2.14844 2.14844 4.47026 2.14844 7.32422V17.6758C2.14844 20.5297 4.47026 22.8516 7.32422 22.8516H10.3027C10.5724 22.8516 10.791 22.633 10.791 22.3633C10.791 22.0936 10.5724 21.875 10.3027 21.875H7.32422C5.00879 21.875 3.125 19.9912 3.125 17.6758V7.32422C3.125 5.00879 5.00879 3.125 7.32422 3.125H17.6758C19.9912 3.125 21.875 5.00879 21.875 7.32422V17.6758C21.875 19.9912 19.9912 21.875 17.6758 21.875H14.7298C14.4602 21.875 14.2416 22.0936 14.2416 22.3633C14.2416 22.633 14.4602 22.8516 14.7298 22.8516H17.6758C20.5297 22.8516 22.8516 20.5297 22.8516 17.6758V7.32422C22.8516 4.47026 20.5297 2.14844 17.6758 2.14844Z"/><path fill="#fff" d="M12.8452 22.0181C12.7544 21.9272 12.6284 21.875 12.5 21.875C12.3716 21.875 12.2456 21.9272 12.1548 22.0181C12.064 22.1089 12.0117 22.2349 12.0117 22.3633C12.0117 22.4917 12.064 22.6177 12.1548 22.7085C12.2456 22.7993 12.3716 22.8516 12.5 22.8516C12.6284 22.8516 12.7544 22.7993 12.8452 22.7085C12.936 22.6177 12.9883 22.4917 12.9883 22.3633C12.9883 22.2349 12.936 22.1089 12.8452 22.0181Z"/><path fill="#fff" d="M8.58571 7.60304C8.40128 7.40626 8.09235 7.3962 7.89552 7.58053L7.87389 7.60089C7.67775 7.78595 7.66876 8.09498 7.85387 8.29112C7.94991 8.39293 8.07936 8.4443 8.20909 8.4443C8.32931 8.4443 8.44977 8.40016 8.5441 8.31114L8.5632 8.29322C8.75997 8.10885 8.77008 7.79982 8.58571 7.60304Z"/><path fill="#fff" d="M12.5 5.76172C11.4275 5.76172 10.3602 6.02007 9.41323 6.50884C9.17363 6.63252 9.07964 6.92705 9.20332 7.1667C9.32705 7.4063 9.62158 7.50024 9.86118 7.37661C10.6817 6.95303 11.5696 6.73828 12.5 6.73828C15.677 6.73828 18.2617 9.323 18.2617 12.5C18.2617 15.677 15.677 18.2617 12.5 18.2617C9.323 18.2617 6.73828 15.677 6.73828 12.5C6.73828 11.503 6.99683 10.5207 7.48599 9.65928C7.61914 9.4248 7.53701 9.12676 7.30249 8.99355C7.06797 8.86045 6.76997 8.94253 6.63677 9.17705C6.06431 10.1852 5.76172 11.3342 5.76172 12.5C5.76172 16.2155 8.78452 19.2383 12.5 19.2383C16.2155 19.2383 19.2383 16.2155 19.2383 12.5C19.2383 8.78452 16.2155 5.76172 12.5 5.76172Z"/><path fill="#fff" d="M12.5 8.10547C10.0769 8.10547 8.10547 10.0769 8.10547 12.5C8.10547 14.9231 10.0769 16.8945 12.5 16.8945C14.9231 16.8945 16.8945 14.9231 16.8945 12.5C16.8945 10.0769 14.9231 8.10547 12.5 8.10547ZM12.5 15.918C10.6153 15.918 9.08203 14.3847 9.08203 12.5C9.08203 10.6153 10.6153 9.08203 12.5 9.08203C14.3847 9.08203 15.918 10.6153 15.918 12.5C15.918 14.3847 14.3847 15.918 12.5 15.918Z"/><path fill="#fff" d="M18.9082 4.23584C17.8851 4.23584 17.0527 5.06821 17.0527 6.09131C17.0527 7.1144 17.8851 7.94678 18.9082 7.94678C19.9313 7.94678 20.7637 7.1144 20.7637 6.09131C20.7637 5.06821 19.9313 4.23584 18.9082 4.23584ZM18.9082 6.97021C18.4236 6.97021 18.0293 6.57593 18.0293 6.09131C18.0293 5.60669 18.4236 5.2124 18.9082 5.2124C19.3928 5.2124 19.7871 5.60669 19.7871 6.09131C19.7871 6.57593 19.3928 6.97021 18.9082 6.97021Z"/></svg>