<?xml version="1.0" encoding="iso-8859-1"?>
<!-- Generator: Adobe Illustrator 19.0.0, SVG Export Plug-In . SVG Version: 6.00 Build 0)  -->
<svg version="1.1" id="Capa_1" xmlns="http://www.w3.org/2000/svg" xmlns:xlink="http://www.w3.org/1999/xlink" x="0px" y="0px"
	 viewBox="0 0 512 512" style="enable-background:new 0 0 512 512;" xml:space="preserve">
<g>
	<g>
		<path d="M446,0H66C29.607,0,0,29.607,0,66v380c0,36.393,29.607,66,66,66h380c36.393,0,66-29.607,66-66V66
			C512,29.607,482.393,0,446,0z M492,446c0,25.364-20.636,46-46,46H66c-25.364,0-46-20.636-46-46V66c0-25.364,20.636-46,46-46h380
			c25.364,0,46,20.636,46,46V446z"/>
	</g>
</g>
<g>
	<g>
		<path d="M412.446,210.188C412.445,210.188,412.445,210.187,412.446,210.188c-14.16-16.25-33.791-24.489-58.351-24.489
			c-17.689,0-33.058,3.65-45.683,10.849c-6.079,3.47-12.121,8.055-18.083,13.718v-9.537c0-5.523-4.478-10-10-10h-72.805
			c-5.522,0-10,4.477-10,10v222.519c0,5.523,4.478,10,10,10h72.268c5.522,0,10-4.477,10-10V297.061
			c0-16.801,12.339-30.639,28.092-31.503l2.549-0.14c6.168-0.332,12.128,1.889,16.76,6.274c5.039,4.769,7.929,11.626,7.929,18.813
			v132.742c0,5.523,4.478,10,10,10h68.128c5.522,0,10-4.477,10-10.002V281.814C433.25,250.135,426.25,226.036,412.446,210.188z
			 M413.25,413.247h-48.128h-0.001V290.505c0-12.656-5.168-24.807-14.18-33.338c-8.663-8.2-19.892-12.367-31.605-11.719l-2.549,0.14
			c-26.352,1.446-46.995,24.056-46.995,51.473v116.185h-52.268V210.728h52.805v26.248c0,4.322,2.777,8.155,6.883,9.502
			c4.11,1.347,8.614-0.096,11.175-3.579c9.996-13.597,20.069-23.348,29.937-28.979c9.565-5.455,21.6-8.221,35.771-8.221
			c18.783,0,32.936,5.766,43.27,17.627l-0.001-0.001c10.541,12.102,15.886,31.781,15.886,58.491V413.247z"/>
	</g>
</g>
<g>
	<g>
		<path d="M165.879,190.729H93.074c-5.522,0-10,4.477-10,10V284c0,5.523,4.478,10,10,10c5.522,0,10-4.477,10-10v-73.271h52.805
			v202.518h-52.805V369c0-5.523-4.478-10-10-10c-5.522,0-10,4.477-10,10v54.247c0,5.523,4.478,10,10,10h72.805
			c5.522,0,10-4.477,10-10V200.729C175.879,195.206,171.401,190.729,165.879,190.729z"/>
	</g>
</g>
<g>
	<g>
		<path d="M100.149,321.93c-1.869-1.86-4.439-2.93-7.08-2.93c-2.63,0-5.21,1.07-7.069,2.93c-1.861,1.86-2.931,4.44-2.931,7.07
			s1.071,5.21,2.931,7.07c1.859,1.86,4.439,2.93,7.069,2.93c2.641,0,5.211-1.07,7.08-2.93c1.861-1.86,2.931-4.44,2.931-7.07
			S102.009,323.79,100.149,321.93z"/>
	</g>
</g>
<g>
	<g>
		<path d="M129.477,78.753c-27.971,0-50.727,22.756-50.727,50.727s22.756,50.727,50.727,50.727s50.728-22.756,50.728-50.727
			S157.449,78.753,129.477,78.753z M129.477,160.207c-16.943,0-30.727-13.784-30.727-30.727s13.785-30.727,30.727-30.727
			c16.943,0,30.728,13.784,30.728,30.727S146.42,160.207,129.477,160.207z"/>
	</g>
</g>
<g>
	<g>
		<path d="M388.636,48h-81.5c-5.522,0-10,4.477-10,10s4.478,10,10,10h81.5c5.522,0,10-4.477,10-10S394.158,48,388.636,48z"/>
	</g>
</g>
<g>
	<g>
		<path d="M261.755,48h-0.119c-5.522,0-10,4.477-10,10s4.478,10,10,10h0.119c5.522,0,10-4.477,10-10S267.277,48,261.755,48z"/>
	</g>
</g>
<g>
</g>
<g>
</g>
<g>
</g>
<g>
</g>
<g>
</g>
<g>
</g>
<g>
</g>
<g>
</g>
<g>
</g>
<g>
</g>
<g>
</g>
<g>
</g>
<g>
</g>
<g>
</g>
<g>
</g>
</svg>
