<svg xmlns="http://www.w3.org/2000/svg" width="25" height="25" fill="none" viewBox="0 0 25 25"><path fill="#fff" d="M21.7773 0H3.22266C1.44565 0 0 1.44565 0 3.22266V21.7773C0 23.5543 1.44565 25 3.22266 25H21.7773C23.5543 25 25 23.5543 25 21.7773V3.22266C25 1.44565 23.5543 0 21.7773 0ZM24.0234 21.7773C24.0234 23.0158 23.0158 24.0234 21.7773 24.0234H3.22266C1.98418 24.0234 0.976562 23.0158 0.976562 21.7773V3.22266C0.976562 1.98418 1.98418 0.976562 3.22266 0.976562H21.7773C23.0158 0.976562 24.0234 1.98418 24.0234 3.22266V21.7773Z"/><path fill="#fff" d="M20.1388 10.2631C20.1387 10.2631 20.1387 10.2631 20.1388 10.2631C19.4474 9.46968 18.4888 9.06738 17.2896 9.06738C16.4259 9.06738 15.6754 9.24561 15.059 9.59712C14.7622 9.76655 14.4671 9.99043 14.176 10.2669V9.80127C14.176 9.53159 13.9574 9.31299 13.6877 9.31299H10.1328C9.86318 9.31299 9.64453 9.53159 9.64453 9.80127V20.6665C9.64453 20.9361 9.86318 21.1547 10.1328 21.1547H13.6615C13.9311 21.1547 14.1498 20.9361 14.1498 20.6665V14.505C14.1498 13.6846 14.7523 13.0089 15.5215 12.9667L15.6459 12.9599C15.9471 12.9437 16.2381 13.0521 16.4643 13.2663C16.7103 13.4991 16.8515 13.8339 16.8515 14.1849V20.6664C16.8515 20.9361 17.0701 21.1547 17.3397 21.1547H20.6663C20.9359 21.1547 21.1546 20.9361 21.1546 20.6663V13.7605C21.1546 12.2137 20.8128 11.037 20.1388 10.2631ZM20.178 20.1781H17.828H17.828V14.1849C17.828 13.5669 17.5756 12.9736 17.1356 12.557C16.7126 12.1566 16.1643 11.9532 15.5924 11.9848L15.4679 11.9917C14.1812 12.0623 13.1732 13.1663 13.1732 14.505V20.1781H10.6211V10.2895H13.1995V11.5711C13.1995 11.7822 13.3351 11.9693 13.5355 12.0351C13.7362 12.1009 13.9561 12.0304 14.0812 11.8604C14.5693 11.1964 15.0611 10.7203 15.543 10.4454C16.01 10.179 16.5977 10.0439 17.2896 10.0439C18.2067 10.0439 18.8978 10.3255 19.4024 10.9046L19.4023 10.9046C19.917 11.4955 20.178 12.4564 20.178 13.7606V20.1781Z"/><path fill="#fff" d="M8.09888 9.31299H4.54395C4.27432 9.31299 4.05566 9.53159 4.05566 9.80127V13.8672C4.05566 14.1369 4.27432 14.3555 4.54395 14.3555C4.81357 14.3555 5.03223 14.1369 5.03223 13.8672V10.2896H7.6106V20.1781H5.03223V18.0176C5.03223 17.7479 4.81357 17.5293 4.54395 17.5293C4.27432 17.5293 4.05566 17.7479 4.05566 18.0176V20.6664C4.05566 20.9361 4.27432 21.1547 4.54395 21.1547H8.09888C8.36851 21.1547 8.58716 20.9361 8.58716 20.6664V9.80127C8.58716 9.53159 8.36851 9.31299 8.09888 9.31299Z"/><path fill="#fff" d="M4.88965 15.7192C4.79839 15.6284 4.6729 15.5762 4.54395 15.5762C4.41553 15.5762 4.28955 15.6284 4.19878 15.7192C4.10791 15.8101 4.05566 15.936 4.05566 16.0645C4.05566 16.1929 4.10796 16.3188 4.19878 16.4097C4.28955 16.5005 4.41553 16.5527 4.54395 16.5527C4.6729 16.5527 4.79839 16.5005 4.88965 16.4097C4.98052 16.3188 5.03276 16.1929 5.03276 16.0645C5.03276 15.936 4.98047 15.8101 4.88965 15.7192Z"/><path fill="#fff" d="M6.32261 3.84534C4.95684 3.84534 3.8457 4.95647 3.8457 6.32224C3.8457 7.68801 4.95684 8.79915 6.32261 8.79915C7.68838 8.79915 8.79956 7.68801 8.79956 6.32224C8.79956 4.95647 7.68843 3.84534 6.32261 3.84534ZM6.32261 7.82259C5.49531 7.82259 4.82227 7.14954 4.82227 6.32224C4.82227 5.49495 5.49536 4.8219 6.32261 4.8219C7.1499 4.8219 7.823 5.49495 7.823 6.32224C7.823 7.14954 7.1499 7.82259 6.32261 7.82259Z"/><path fill="#fff" d="M18.9766 2.34375H14.9971C14.7274 2.34375 14.5088 2.56235 14.5088 2.83203C14.5088 3.10171 14.7274 3.32031 14.9971 3.32031H18.9766C19.2462 3.32031 19.4648 3.10171 19.4648 2.83203C19.4648 2.56235 19.2462 2.34375 18.9766 2.34375Z"/><path fill="#fff" d="M12.7812 2.34375H12.7754C12.5058 2.34375 12.2871 2.56235 12.2871 2.83203C12.2871 3.10171 12.5058 3.32031 12.7754 3.32031H12.7812C13.0508 3.32031 13.2695 3.10171 13.2695 2.83203C13.2695 2.56235 13.0508 2.34375 12.7812 2.34375Z"/></svg>