<svg width="25" height="25" viewBox="0 0 25 25" fill="none" xmlns="http://www.w3.org/2000/svg">
<g clip-path="url(#clip0)" filter="url(#filter0_d)">
<path d="M6.96837 7.97388L6.99097 7.98428C7.05689 8.01445 7.12598 8.02876 7.19405 8.02876C7.37911 8.02876 7.55616 7.923 7.63834 7.74375C7.75064 7.49859 7.64297 7.20879 7.39781 7.09644L7.37759 7.08721C7.13272 6.97413 6.84263 7.08106 6.72965 7.32593C6.61661 7.57075 6.72349 7.86089 6.96837 7.97388Z" fill="white"/>
<path d="M24.8851 4.73674C24.7451 4.57063 24.5123 4.51691 24.3137 4.605C24.0165 4.73679 23.714 4.8528 23.4072 4.95271C23.8049 4.44875 24.114 3.8739 24.3156 3.25202C24.3782 3.05881 24.3147 2.847 24.1561 2.72014C23.9975 2.59329 23.7769 2.5779 23.6022 2.68137C22.7494 3.18669 21.8327 3.55051 20.8737 3.76467C19.8719 2.80198 18.5197 2.25476 17.1213 2.25476C14.1357 2.25476 11.7067 4.68371 11.7067 7.66935C11.7067 7.8653 11.7174 8.06256 11.7386 8.25983C10.971 8.18673 10.2111 8.04874 9.47221 7.84801C9.212 7.77731 8.94369 7.93097 8.87299 8.19122C8.80229 8.45148 8.95595 8.71974 9.2162 8.79044C10.2168 9.06227 11.253 9.22677 12.2961 9.27931C12.449 9.28702 12.5957 9.22301 12.694 9.10636C12.7924 8.98971 12.8306 8.83385 12.7972 8.68497C12.7216 8.34742 12.6833 8.00568 12.6833 7.66935C12.6833 5.22219 14.6742 3.23132 17.1213 3.23132C18.3442 3.23132 19.5236 3.74143 20.357 4.63083C20.4717 4.75339 20.6415 4.80842 20.8064 4.77629C21.4768 4.64602 22.1296 4.45022 22.7587 4.19123C22.406 4.68073 21.9556 5.09719 21.4309 5.4113C21.2332 5.52961 21.1451 5.76994 21.2195 5.98791C21.2939 6.20588 21.5104 6.3423 21.7392 6.31515C22.1902 6.26164 22.6369 6.17814 23.0769 6.0653C22.6767 6.48405 22.2376 6.86574 21.7626 7.20734C21.6317 7.30148 21.5557 7.45412 21.5595 7.61525L21.5743 8.24762C21.5713 14.8949 16.5114 21.7686 8.04565 21.7686C6.11103 21.7686 4.21548 21.3573 2.47198 20.5678C4.52441 20.4126 6.45048 19.668 8.08373 18.3909C8.24638 18.2637 8.31147 18.0479 8.24623 17.852C8.181 17.6561 7.9996 17.5224 7.79316 17.5181C6.15869 17.4839 4.69639 16.5619 3.94937 15.1556C4.00264 15.157 4.0563 15.1578 4.11026 15.1578C4.59463 15.1578 5.073 15.0961 5.53208 14.9745C5.75141 14.9164 5.9018 14.7149 5.89512 14.4881C5.88843 14.2613 5.72641 14.069 5.50405 14.0239C3.68272 13.6548 2.3024 12.1814 2.00474 10.39C2.54307 10.5868 3.10103 10.6934 3.67183 10.708C3.88926 10.7131 4.08418 10.5746 4.14985 10.3671C4.21543 10.1597 4.13594 9.93395 3.95488 9.81339C2.71866 8.99039 1.98062 7.61081 1.98062 6.12302C1.98062 5.57277 2.0815 5.03127 2.27564 4.52673C3.07168 5.40568 3.97041 6.18327 4.95527 6.84435C5.1792 6.99469 5.48252 6.93498 5.63281 6.7111C5.78315 6.48722 5.72344 6.18386 5.49956 6.03356C4.38535 5.28566 3.38926 4.37785 2.53887 3.33537C2.4378 3.21145 2.28228 3.14509 2.123 3.15715C1.96358 3.16946 1.82027 3.25901 1.73936 3.39695C1.25836 4.21701 1.00411 5.15969 1.00411 6.12306C1.00411 7.31349 1.39141 8.44708 2.0836 9.36984C1.95186 9.31227 1.82149 9.24796 1.69283 9.17692C1.54156 9.09342 1.35743 9.09606 1.2086 9.18385C1.05982 9.27169 0.968513 9.43155 0.968513 9.60436V9.66442C0.968513 11.4709 1.87003 13.112 3.27906 14.1051C3.27613 14.1045 3.2732 14.104 3.27027 14.1034C3.10108 14.0715 2.92744 14.131 2.81343 14.2602C2.69947 14.3894 2.66197 14.569 2.7148 14.733C3.2877 16.5114 4.72446 17.8397 6.47661 18.31C5.02705 19.1714 3.38389 19.6217 1.66124 19.6217C1.28736 19.6217 0.921394 19.6012 0.542342 19.5591C0.31705 19.534 0.103818 19.6675 0.0280853 19.8813C-0.0476958 20.0952 0.033847 20.333 0.224862 20.4555C2.56221 21.9535 5.2666 22.7453 8.0457 22.7453C10.2809 22.7453 12.3729 22.3012 14.2635 21.4252C15.9977 20.6219 17.5302 19.4738 18.8181 18.0128C21.1903 15.3219 22.5509 11.7605 22.5509 8.24176C22.5509 8.23795 22.5508 8.2341 22.5507 8.23029L22.5417 7.84582C23.4717 7.14172 24.2703 6.29372 24.918 5.32219C25.0385 5.14147 25.0251 4.90285 24.8851 4.73674Z" fill="white"/>
<path d="M18.3927 14.1124C18.1615 13.9737 17.8615 14.0486 17.7228 14.2799L17.7219 14.2813C17.5831 14.5125 17.6585 14.8117 17.8898 14.9505C17.9682 14.9976 18.0546 15.0199 18.14 15.0199C18.3062 15.0199 18.4685 14.935 18.5602 14.7823C18.6989 14.551 18.624 14.2511 18.3927 14.1124Z" fill="white"/>
<path d="M17.4408 15.5818C17.2328 15.4104 16.925 15.4399 16.7535 15.648C15.8987 16.6851 14.8882 17.5407 13.75 18.1913C13.5158 18.3251 13.4345 18.6233 13.5683 18.8575C13.6585 19.0152 13.8232 19.1036 13.9927 19.1036C14.0748 19.1036 14.1581 19.0828 14.2345 19.0392C15.4757 18.3297 16.5768 17.3978 17.507 16.2692C17.6786 16.0611 17.6489 15.7534 17.4408 15.5818Z" fill="white"/>
</g>
<defs>
<filter id="filter0_d" x="-4" y="0" width="33" height="33" filterUnits="userSpaceOnUse" color-interpolation-filters="sRGB">
<feFlood flood-opacity="0" result="BackgroundImageFix"/>
<feColorMatrix in="SourceAlpha" type="matrix" values="0 0 0 0 0 0 0 0 0 0 0 0 0 0 0 0 0 0 127 0"/>
<feOffset dy="4"/>
<feGaussianBlur stdDeviation="2"/>
<feColorMatrix type="matrix" values="0 0 0 0 0 0 0 0 0 0 0 0 0 0 0 0 0 0 0.25 0"/>
<feBlend mode="normal" in2="BackgroundImageFix" result="effect1_dropShadow"/>
<feBlend mode="normal" in="SourceGraphic" in2="effect1_dropShadow" result="shape"/>
</filter>
<clipPath id="clip0">
<rect width="25" height="25" fill="white"/>
</clipPath>
</defs>
</svg>
