<svg width="25" height="25" viewBox="0 0 25 25" fill="none" xmlns="http://www.w3.org/2000/svg">
<g clip-path="url(#clip0)">
<path d="M22.9167 0H2.08335C0.933301 0.00136719 0.00136719 0.933301 0 2.08335V22.9167C0.00136719 24.0667 0.933301 24.9986 2.08335 25H22.9167C24.0667 24.9986 24.9986 24.0667 25 22.9167V2.08335C24.9986 0.933301 24.0667 0.00136719 22.9167 0ZM24.1667 22.9167C24.1667 23.607 23.607 24.1667 22.9167 24.1667H2.08335C1.39302 24.1667 0.83335 23.607 0.83335 22.9167V4.16665H24.1667V22.9167H24.1667ZM24.1667 3.33335H0.83335V2.08335C0.83335 1.39302 1.39302 0.83335 2.08335 0.83335H22.9167C23.607 0.83335 24.1667 1.39302 24.1667 2.08335V3.33335H24.1667Z" fill="white"/>
<path d="M2.91631 1.66675H2.49966C2.26953 1.66675 2.08301 1.85327 2.08301 2.0834C2.08301 2.31353 2.26953 2.5001 2.49966 2.5001H2.91631C3.14644 2.5001 3.33296 2.31357 3.33296 2.08345C3.33296 1.85332 3.14644 1.66675 2.91631 1.66675Z" fill="white"/>
<path d="M4.74199 1.70004C4.64141 1.65419 4.52588 1.65419 4.42534 1.70004C4.37485 1.72118 4.32837 1.75077 4.28784 1.78754C4.12671 1.95184 4.12671 2.21488 4.28784 2.37919C4.32837 2.41595 4.37485 2.44554 4.42534 2.46669C4.52622 2.51112 4.64111 2.51112 4.74199 2.46669C4.79248 2.44554 4.83897 2.41595 4.87949 2.37919C5.04063 2.21488 5.04063 1.95184 4.87949 1.78754C4.83897 1.75077 4.79248 1.72118 4.74199 1.70004Z" fill="white"/>
<path d="M6.40948 1.69617C6.25314 1.63127 6.07306 1.66736 5.95387 1.78757C5.9171 1.8281 5.88751 1.87458 5.86637 1.92507C5.82189 2.02595 5.82189 2.14084 5.86637 2.24172C5.88751 2.29221 5.9171 2.3387 5.95387 2.37922C6.11818 2.54036 6.38121 2.54036 6.54552 2.37922C6.58229 2.3387 6.61188 2.29221 6.63302 2.24172C6.65636 2.19226 6.66779 2.13806 6.66637 2.08337C6.66739 1.91414 6.56583 1.76106 6.40948 1.69617Z" fill="white"/>
<path d="M22.4993 1.66675H8.33267C8.10254 1.66675 7.91602 1.85327 7.91602 2.0834C7.91602 2.31353 8.10254 2.50005 8.33267 2.50005H22.4993C22.7294 2.50005 22.916 2.31353 22.916 2.0834C22.916 1.85327 22.7294 1.66675 22.4993 1.66675Z" fill="white"/>
<path d="M6.39763 19.8416C6.41658 19.8591 6.43723 19.8746 6.4593 19.8879C8.02771 21.5553 10.2155 22.5007 12.5047 22.4999C14.7939 22.4992 16.9811 21.5526 18.5485 19.8841C18.5692 19.872 18.5887 19.8581 18.6068 19.8425C18.6205 19.8233 18.6325 19.8029 18.6426 19.7816C21.5666 16.6099 21.5666 11.725 18.6426 8.5533L18.641 8.55247C18.6308 8.53118 18.6188 8.51082 18.6051 8.49163C18.5862 8.47395 18.5654 8.45833 18.5431 8.44495C16.9754 6.77883 14.7892 5.83411 12.5014 5.83411C10.2137 5.83411 8.02751 6.77883 6.45979 8.44495C6.43752 8.45828 6.41672 8.47395 6.39773 8.49163C6.38406 8.51082 6.37205 8.53118 6.36189 8.55247C3.43796 11.7242 3.43796 16.6091 6.36189 19.7808C6.372 19.8021 6.38396 19.8224 6.39763 19.8416ZM14.7735 21.3112C15.4139 20.5377 15.896 19.6458 16.1922 18.6862V18.6849C16.7156 18.9302 17.2095 19.234 17.6643 19.5907C16.8434 20.3758 15.8549 20.964 14.7735 21.3112ZM18.2393 18.9854C17.6848 18.5406 17.0764 18.1675 16.4285 17.875C16.6965 16.7975 16.8428 15.6934 16.8647 14.5833H19.9793C19.8927 16.2007 19.2819 17.7459 18.2393 18.9854ZM19.9793 13.75H16.8647C16.8427 12.6399 16.6964 11.5358 16.4285 10.4583C17.0763 10.1661 17.6848 9.79329 18.2393 9.34875C19.2818 10.588 19.8925 12.1329 19.9793 13.75ZM17.6643 8.74124C17.2095 9.09797 16.7157 9.40188 16.1923 9.64705C15.8962 8.68704 15.4141 7.79465 14.7735 7.02078C15.8549 7.36799 16.8434 7.95627 17.6643 8.74124ZM12.9172 6.72498C13.9384 6.99246 14.8418 8.22039 15.411 9.95872C14.6069 10.236 13.767 10.3958 12.9172 10.4333V6.72498ZM12.9172 11.2671C13.8443 11.2323 14.7616 11.064 15.6406 10.7671C15.8769 11.7446 16.0081 12.7446 16.0318 13.75H12.9172V11.2671ZM12.9172 14.5833H16.0318C16.008 15.5885 15.8769 16.5882 15.6406 17.5654C14.7615 17.2688 13.8443 17.1007 12.9172 17.0662V14.5833ZM12.9172 17.9C13.767 17.9376 14.6069 18.0976 15.411 18.375C14.8418 20.1133 13.9384 21.3412 12.9172 21.6087V17.9ZM7.33679 19.5896C7.79172 19.2337 8.28557 18.9306 8.80886 18.6863V18.685C9.10505 19.6446 9.58713 20.5365 10.2276 21.31C9.14621 20.9628 8.15774 20.3745 7.33679 19.5896ZM12.0839 21.6083C11.0627 21.3408 10.1593 20.1129 9.59016 18.3746C10.3943 18.0973 11.2342 17.9375 12.0839 17.9V21.6083ZM12.0839 17.0662C11.1568 17.101 10.2396 17.2693 9.36057 17.5662C9.12419 16.5887 8.99304 15.5887 8.96931 14.5833H12.0839V17.0662ZM12.0839 13.75H8.96931C8.99309 12.7448 9.12424 11.7451 9.36057 10.7679C10.2396 11.0645 11.1568 11.2326 12.0839 11.2671V13.75ZM12.0839 6.72454V10.4333C11.2342 10.3956 10.3943 10.2357 9.59016 9.95828C10.1593 8.22 11.0626 6.99207 12.0839 6.72454ZM10.2277 7.01956C9.58689 7.79377 9.10481 8.6866 8.80891 9.64705V9.64578C8.28547 9.40056 7.79163 9.0967 7.33684 8.73992C8.15774 7.955 9.14622 7.36672 10.2277 7.01956ZM6.76179 9.34788C7.31628 9.7927 7.92473 10.1658 8.57263 10.4583C8.30466 11.5358 8.15832 12.6399 8.1364 13.7499H5.0218C5.10842 12.1326 5.71921 10.5874 6.76179 9.34788ZM8.1364 14.5833C8.15837 15.6934 8.30471 16.7975 8.57263 17.875C7.92478 18.1672 7.31633 18.54 6.76179 18.9845C5.71936 17.7453 5.10862 16.2004 5.0218 14.5833H8.1364V14.5833Z" fill="white"/>
</g>
<defs>
<clipPath id="clip0">
<rect width="25" height="25" fill="white"/>
</clipPath>
</defs>
</svg>
