<svg xmlns="http://www.w3.org/2000/svg" width="25" height="25" fill="none" viewBox="0 0 25 25"><path fill="#fff" d="M12.6236 3.46702L12.5883 3.46692C12.5878 3.46692 12.5874 3.46692 12.5869 3.46692C12.3179 3.46692 12.0994 3.68464 12.0986 3.95388C12.0986 3.95427 12.0986 3.95466 12.0986 3.95505C12.0985 4.22419 12.3163 4.44275 12.5856 4.44348L12.621 4.44358C12.6214 4.44358 12.6219 4.44358 12.6223 4.44358C12.8914 4.44358 13.1099 4.22585 13.1106 3.95662C13.1106 3.95623 13.1106 3.95583 13.1106 3.95544C13.1107 3.6863 12.8929 3.46775 12.6236 3.46702Z"/><path fill="#fff" d="M24.482 6.49946C24.1614 5.28046 23.2156 4.32045 22.0141 3.99409C20.7751 3.65664 17.3208 3.53237 14.6411 3.48759C14.373 3.48393 14.1492 3.69804 14.1447 3.96767C14.1402 4.2373 14.3551 4.45956 14.6248 4.46406C18.3337 4.52607 20.8668 4.69379 21.7578 4.93642C22.6235 5.17158 23.3055 5.86567 23.5376 6.74814C24.0176 8.5686 24.0234 12.4609 24.0234 12.4999C24.0234 12.5391 24.0176 16.4313 23.5375 18.2521C23.3055 19.1343 22.6235 19.8284 21.7575 20.0636C19.9681 20.5509 12.5745 20.5566 12.5 20.5566C12.4255 20.5566 5.03193 20.5509 3.24219 20.0635C2.37646 19.8284 1.69448 19.1343 1.4624 18.2518C0.982422 16.4313 0.976562 12.5391 0.976562 12.5C0.976562 12.4609 0.982422 8.5686 1.46245 6.7479C1.69448 5.86572 2.37646 5.17163 3.24248 4.93637C4.15298 4.68842 6.76099 4.51953 10.5862 4.46069C10.8558 4.45659 11.071 4.23461 11.0669 3.96499C11.0627 3.69536 10.8401 3.48193 10.5711 3.48427C7.80898 3.5267 4.25088 3.64965 2.98618 3.99404C1.78438 4.32045 0.838623 5.28051 0.518115 6.49921C0.00590822 8.44199 0 12.3352 0 12.5C0 12.6648 0.00590822 16.558 0.518018 18.5005C0.838623 19.7195 1.78438 20.6795 2.98589 21.0059C4.90034 21.5272 12.1906 21.5332 12.5 21.5332C12.8094 21.5332 20.0997 21.5272 22.0138 21.006C23.2156 20.6795 24.1614 19.7195 24.4819 18.5008C24.9941 16.558 25 12.6648 25 12.5C25 12.3352 24.9941 8.44199 24.482 6.49946Z"/><path fill="#fff" d="M2.83203 11.207C2.56235 11.207 2.34375 11.4256 2.34375 11.6953V15.6748C2.34375 15.9445 2.56235 16.1631 2.83203 16.1631C3.10171 16.1631 3.32031 15.9445 3.32031 15.6748V11.6953C3.32031 11.4256 3.10171 11.207 2.83203 11.207Z"/><path fill="#fff" d="M2.83203 8.98535C2.56235 8.98535 2.34375 9.20396 2.34375 9.47363V9.4794C2.34375 9.74907 2.56235 9.96768 2.83203 9.96768C3.10171 9.96768 3.32031 9.74907 3.32031 9.4794V9.47363C3.32031 9.20396 3.10171 8.98535 2.83203 8.98535Z"/><path fill="#fff" d="M16.4601 12.152L10.4054 8.63637C10.2543 8.54862 10.0679 8.54828 9.91655 8.63544C9.76519 8.7226 9.67188 8.88397 9.67188 9.05863V16.0899C9.67188 16.2646 9.76519 16.4259 9.91655 16.5131C9.99194 16.5565 10.076 16.5782 10.1602 16.5782C10.2449 16.5782 10.3296 16.5562 10.4054 16.5122L16.4601 12.9965C16.6106 12.9091 16.7032 12.7483 16.7032 12.5743C16.7032 12.4002 16.6106 12.2394 16.4601 12.152ZM10.6484 15.2417V9.90678L15.2424 12.5743L10.6484 15.2417Z"/></svg>