<svg height="512pt" viewBox="0 0 512.0056 512" width="512pt" xmlns="http://www.w3.org/2000/svg"><path d="m8.539062 512.003906c-2.269531 0-4.488281-.90625-6.128906-2.59375-2.285156-2.347656-3.019531-5.804687-1.882812-8.882812l39.355468-107.351563c-26.105468-41.019531-39.87890575-88.363281-39.87890575-137.171875 0-141.160156 114.84374975-255.99999975 255.99999975-255.99999975 141.160156 0 256 114.83984375 256 255.99999975 0 141.15625-114.839844 256-256 256-47.214844 0-93.25-12.980468-133.417968-37.554687l-111.351563 37.117187c-.878906.292969-1.789063.4375-2.695313.4375zm115.15625-55.449218c1.605469 0 3.191407.449218 4.566407 1.320312 38.238281 24.253906 82.40625 37.0625 127.742187 37.0625 131.746094 0 238.933594-107.1875 238.933594-238.933594s-107.1875-238.933594-238.933594-238.933594-238.929687 107.1875-238.929687 238.933594c0 46.90625 13.625 92.355469 39.414062 131.421875 1.492188 2.261719 1.816407 5.09375.886719 7.636719l-34.730469 94.710938 98.347657-32.777344c.886718-.296875 1.792968-.441406 2.703124-.441406zm0 0"/><path d="m469.339844 264.535156c-4.710938 0-8.535156-3.820312-8.535156-8.53125 0-46.414062-17.484376-92.972656-49.21875-131.074218-3.019532-3.617188-2.527344-9 1.089843-12.023438 3.628907-3.011719 9.003907-2.523438 12.015625 1.09375 34.296875 41.171875 53.179688 91.605469 53.179688 142.003906 0 4.710938-3.820313 8.53125-8.53125 8.53125zm0 0"/><path d="m392.539062 102.402344c-1.9375 0-3.882812-.65625-5.480468-1.996094-14.488282-12.160156-27.84375-21.53125-40.8125-28.65625-4.128906-2.269531-5.640625-7.457031-3.378906-11.578125 2.261718-4.121094 7.449218-5.648437 11.585937-3.378906 13.96875 7.660156 28.222656 17.65625 43.582031 30.539062 3.609375 3.03125 4.078125 8.414063 1.050782 12.023438-1.699219 2.007812-4.113282 3.046875-6.546876 3.046875zm0 0"/><path d="m315.738281 59.734375c-.886719 0-1.78125-.144531-2.679687-.433594-20.25-6.679687-37.460938-8.074219-57.070313-8.105469-4.710937-.007812-8.53125-3.832031-8.523437-8.542968.015625-4.703125 3.839844-8.515625 8.539062-8.515625h.011719c25.144531.035156 43.21875 2.636719 62.394531 8.960937 4.472656 1.476563 6.902344 6.304688 5.425782 10.777344-1.175782 3.589844-4.511719 5.859375-8.097657 5.859375zm0 0"/><path d="m301.847656 409.601562c-9.730468 0-19.003906-4.179687-25.4375-11.476562-6.433594-7.285156-9.4375-17.015625-8.234375-26.667969l.5625-4.519531h-51.0625l-1.625 12.945312c-2.113281 16.9375-16.585937 29.71875-33.671875 29.71875-9.726562 0-19.003906-4.179687-25.4375-11.476562-6.433594-7.285156-9.4375-17.015625-8.234375-26.667969l.5625-4.519531h-4.394531c-18.710938 0-33.9375-15.226562-33.9375-33.9375 0-19.105469 15.226562-34.332031 33.9375-34.332031h12.929688l8.53125-68.265625h-21.460938c-18.710938 0-33.9375-15.222656-33.9375-33.9375 0-19.105469 15.226562-34.328125 33.9375-34.328125h29.996094l1.621094-12.945313c2.117187-16.9375 16.589843-29.722656 33.671874-29.722656 9.726563 0 19.003907 4.183594 25.4375 11.476562 6.433594 7.289063 9.4375 17.015626 8.234376 26.667969l-.5625 4.523438h51.0625l1.621093-12.945313c2.117188-16.9375 16.589844-29.722656 33.675781-29.722656 9.726563 0 19.003907 4.183594 25.4375 11.476562 6.433594 7.289063 9.4375 17.015626 8.234376 26.667969l-.5625 4.523438h4.394531c18.710937 0 33.9375 15.222656 33.9375 33.9375v.390625c0 18.714844-15.226563 33.9375-33.9375 33.9375h-12.929688l-8.53125 68.265625h21.460938c18.710937 0 33.9375 15.226562 33.9375 33.9375 0 19.105469-15.226563 34.332031-33.9375 34.332031h-29.996094l-1.621094 12.945312c-2.117187 16.9375-16.589843 29.71875-33.671875 29.71875zm-91.707031-59.730468h68.265625c2.449219 0 4.777344 1.046875 6.398438 2.882812 1.621093 1.835938 2.375 4.273438 2.066406 6.707032l-1.765625 14.113281c-.605469 4.875.84375 9.582031 4.09375 13.261719 3.253906 3.679687 7.742187 5.699218 12.648437 5.699218 8.488282 0 15.683594-6.347656 16.742188-14.769531l2.550781-20.421875c.527344-4.265625 4.164063-7.472656 8.464844-7.472656h37.53125c9.300781 0 16.867187-7.570313 16.867187-16.871094 0-9.695312-7.566406-17.265625-16.867187-17.265625h-31.132813c-2.449218 0-4.777344-1.046875-6.398437-2.882813-1.621094-1.835937-2.371094-4.273437-2.066407-6.707031l10.667969-85.332031c.527344-4.269531 4.164063-7.476562 8.464844-7.476562h20.464844c9.300781 0 16.867187-7.570313 16.867187-16.871094v-.390625c0-9.300781-7.566406-16.871094-16.867187-16.871094h-14.0625c-2.449219 0-4.78125-1.050781-6.402344-2.882813-1.621094-1.835937-2.371094-4.277343-2.066406-6.707031l1.769531-14.117187c.605469-4.871094-.847656-9.582032-4.097656-13.257813-3.25-3.679687-7.738282-5.703125-12.644532-5.703125-8.492187 0-15.6875 6.351563-16.742187 14.773438l-2.554687 20.417968c-.527344 4.277344-4.164063 7.476563-8.464844 7.476563h-68.265625c-2.449219 0-4.777344-1.050781-6.398438-2.882813-1.621093-1.835937-2.375-4.277343-2.066406-6.707031l1.765625-14.117187c.605469-4.871094-.84375-9.582032-4.09375-13.257813-3.253906-3.679687-7.742188-5.703125-12.648438-5.703125-8.488281 0-15.683593 6.351563-16.742187 14.773438l-2.550781 20.417968c-.53125 4.277344-4.164063 7.476563-8.464844 7.476563h-37.53125c-9.300781 0-16.871094 7.570313-16.871094 16.871094 0 9.691406 7.570313 17.261719 16.871094 17.261719h31.128906c2.449219 0 4.78125 1.050781 6.402344 2.882812 1.621094 1.835938 2.371094 4.277344 2.0625 6.707031l-10.664062 85.335938c-.53125 4.273437-4.164063 7.472656-8.464844 7.472656h-20.464844c-9.300781 0-16.871094 7.570313-16.871094 16.871094 0 9.695312 7.570313 17.265625 16.871094 17.265625h14.0625c2.449219 0 4.78125 1.046875 6.402344 2.882812 1.621094 1.835938 2.371094 4.273438 2.0625 6.707032l-1.765625 14.113281c-.605469 4.875.84375 9.582031 4.097656 13.261719 3.25 3.679687 7.738281 5.699218 12.644531 5.699218 8.492188 0 15.683594-6.347656 16.742188-14.769531l2.554687-20.421875c.527344-4.273438 4.164063-7.472656 8.464844-7.472656zm74.664063-34.136719h-68.265626c-2.449218 0-4.777343-1.046875-6.398437-2.882813-1.621094-1.835937-2.375-4.273437-2.066406-6.707031l10.667969-85.332031c.527343-4.269531 4.164062-7.476562 8.464843-7.476562h68.265625c2.449219 0 4.777344 1.050781 6.398438 2.882812 1.621094 1.835938 2.375 4.277344 2.066406 6.707031l-10.667969 85.335938c-.527343 4.273437-4.164062 7.472656-8.464843 7.472656zm-58.597657-17.066406h51.0625l8.535157-68.265625h-51.0625zm0 0"/></svg>