<svg width="44" height="44" viewBox="0 0 44 44" fill="none" xmlns="http://www.w3.org/2000/svg">
<g clip-path="url(#clip0)">
<path d="M0 10.863V33.1367C0 36.2058 2.50377 38.7096 5.57291 38.7096H23.575C26.6441 38.7096 29.1479 36.2058 29.1479 33.1367V29.5291C29.1479 28.9188 28.6543 28.4253 28.0441 28.4253C27.4338 28.4253 26.9402 28.9188 26.9402 29.5291V33.1367C26.9402 34.9943 25.4236 36.5109 23.566 36.5109H5.57291C3.71528 36.5109 2.19865 34.9943 2.19865 33.1367V10.863C2.19865 9.00532 3.71528 7.48869 5.57291 7.48869H23.575C25.4326 7.48869 26.9492 9.00532 26.9492 10.863V14.4705C26.9492 15.0808 27.4428 15.5744 28.053 15.5744C28.6633 15.5744 29.1568 15.0808 29.1568 14.4705V10.863C29.1568 7.79381 26.6531 5.29004 23.5839 5.29004H5.57291C2.50377 5.29004 0 7.78484 0 10.863Z" fill="white"/>
<path d="M34.5863 30.3008C34.8017 30.5162 35.0799 30.6239 35.367 30.6239C35.6542 30.6239 35.9324 30.5162 36.1478 30.3008L43.677 22.7716C44.1078 22.3408 44.1078 21.6498 43.677 21.219L36.1478 13.6898C35.717 13.259 35.026 13.259 34.5953 13.6898C34.1645 14.1205 34.1645 14.8115 34.5953 15.2423L40.2489 20.896H19.6175C19.0072 20.896 18.5137 21.3895 18.5137 21.9998C18.5137 22.61 19.0072 23.1036 19.6175 23.1036H40.24L34.5863 28.7573C34.1555 29.1791 34.1555 29.8791 34.5863 30.3008Z" fill="white"/>
</g>
<defs>
<clipPath id="clip0">
<rect width="44" height="44" fill="white"/>
</clipPath>
</defs>
</svg>
