<svg width="44" height="44" viewBox="0 0 44 44" fill="none" xmlns="http://www.w3.org/2000/svg">
<path d="M41.87 12.0748H36.3047V5.219C36.3047 4.04449 35.3492 3.08887 34.1746 3.08887H2.13005C0.955539 3.08887 0 4.04441 0 5.219V30.5364C0 31.0996 0.336187 31.6027 0.856453 31.8182C1.0291 31.8897 1.20974 31.9245 1.38875 31.9245C1.749 31.9245 2.10229 31.7835 2.36827 31.5175L6.77995 27.1058H7.69527V33.9617C7.69527 35.1362 8.65081 36.0918 9.82541 36.0918H23.2429C23.5989 36.0918 23.8874 35.8032 23.8874 35.4473C23.8874 35.0913 23.5989 34.8027 23.2429 34.8027H9.82541C9.36169 34.8027 8.98434 34.4255 8.98434 33.9617V27.1058H34.1746C35.3491 27.1058 36.3047 26.1503 36.3047 24.9757V20.3957C36.3047 20.0398 36.0161 19.7512 35.6602 19.7512C35.3042 19.7512 35.0157 20.0398 35.0157 20.3957V24.9757C35.0157 25.4394 34.6384 25.8168 34.1746 25.8168H6.51303C6.3421 25.8168 6.17813 25.8846 6.0573 26.0056L1.45681 30.6061C1.44289 30.6199 1.41023 30.6525 1.34973 30.6274C1.28906 30.602 1.28906 30.556 1.28906 30.5364V5.219C1.28906 4.75528 1.66633 4.37793 2.13005 4.37793H34.1746C34.6383 4.37793 35.0157 4.7552 35.0157 5.219V17.5605C35.0157 17.9164 35.3042 18.205 35.6602 18.205C36.0161 18.205 36.3047 17.9164 36.3047 17.5605V13.3639H41.87C42.3337 13.3639 42.7109 13.7412 42.7109 14.2049V39.5223C42.7109 39.542 42.7109 39.588 42.6503 39.6131C42.5897 39.6383 42.5572 39.6057 42.5432 39.5918L37.9427 34.9913C37.8219 34.8704 37.6579 34.8025 37.487 34.8025H26.078C25.722 34.8025 25.4335 35.091 25.4335 35.447C25.4335 35.803 25.722 36.0915 26.078 36.0915H37.22L41.6317 40.5032C41.8978 40.7693 42.251 40.9102 42.6112 40.9102C42.7902 40.9102 42.9709 40.8754 43.1435 40.8039C43.6638 40.5884 43.9999 40.0853 43.9999 39.5222V14.2049C44 13.0304 43.0445 12.0748 41.87 12.0748Z" fill="white"/>
<path d="M19.0713 21.7274C18.7723 21.881 18.4632 22.0288 18.1524 22.1668C17.8416 22.0288 17.5325 21.881 17.2335 21.7274C15.7248 20.952 14.3855 19.9877 13.2525 18.8611C13.0001 18.6102 12.592 18.6113 12.341 18.8637C12.0901 19.1161 12.0912 19.5242 12.3436 19.7751C13.5707 20.9952 15.0177 22.0377 16.6442 22.8738C16.9743 23.0434 17.3154 23.2063 17.6581 23.3576C17.8152 23.427 17.9838 23.4618 18.1524 23.4618C18.3209 23.4618 18.4895 23.427 18.6465 23.3577C18.9894 23.2062 19.3305 23.0434 19.6606 22.8738C24.8425 20.2101 27.5536 15.7386 27.5536 12.6982C27.5536 9.40892 25.0282 6.73291 21.9239 6.73291C20.5209 6.73291 19.181 7.2854 18.1524 8.26947C17.1238 7.2854 15.7838 6.73291 14.3808 6.73291C11.2763 6.73291 8.75049 9.40892 8.75049 12.6982C8.75049 14.1108 9.37448 15.8604 10.4624 17.4984C10.6594 17.795 11.0595 17.8757 11.3559 17.6787C11.6525 17.4817 11.7332 17.0817 11.5362 16.7852C10.5851 15.3531 10.0395 13.8634 10.0395 12.6981C10.0395 10.1196 11.9869 8.02189 14.3807 8.02189C15.6339 8.02189 16.826 8.60618 17.6516 9.62496C17.7739 9.77604 17.9579 9.86379 18.1523 9.86379C18.3467 9.86379 18.5307 9.77604 18.6532 9.62496C19.4786 8.60618 20.6707 8.02189 21.9239 8.02189C24.3174 8.02189 26.2646 10.1196 26.2646 12.6981C26.2646 14.7596 24.3117 19.0337 19.0713 21.7274V21.7274Z" fill="white"/>
<path d="M38.2797 29.856C38.6356 29.856 38.9242 29.5674 38.9242 29.2114C38.9242 28.8555 38.6356 28.5669 38.2797 28.5669H30.5625C30.2065 28.5669 29.918 28.8555 29.918 29.2114C29.918 29.5674 30.2065 29.856 30.5625 29.856H38.2797Z" fill="white"/>
<path d="M27.715 29.2114C27.715 28.8555 27.4265 28.5669 27.0705 28.5669H12.0601C11.7041 28.5669 11.4155 28.8555 11.4155 29.2114C11.4155 29.5674 11.7041 29.856 12.0601 29.856H27.0705C27.4265 29.856 27.715 29.5674 27.715 29.2114Z" fill="white"/>
<path d="M20.1665 32.4126H38.2798C38.6357 32.4126 38.9243 32.124 38.9243 31.7681C38.9243 31.4121 38.6357 31.1235 38.2798 31.1235H20.1665C19.8106 31.1235 19.522 31.4121 19.522 31.7681C19.522 32.124 19.8105 32.4126 20.1665 32.4126Z" fill="white"/>
<path d="M12.0601 31.1235C11.7041 31.1235 11.4155 31.4121 11.4155 31.7681C11.4155 32.124 11.7041 32.4126 12.0601 32.4126H16.651C17.007 32.4126 17.2955 32.124 17.2955 31.7681C17.2955 31.4121 17.007 31.1235 16.651 31.1235H12.0601Z" fill="white"/>
<path d="M26.5405 23.4614H27.6004C27.9563 23.4614 28.2449 23.1728 28.2449 22.8169C28.2449 22.4609 27.9563 22.1724 27.6004 22.1724H26.5405C26.1846 22.1724 25.896 22.4609 25.896 22.8169C25.896 23.1728 26.1846 23.4614 26.5405 23.4614Z" fill="white"/>
</svg>
