<svg xmlns="http://www.w3.org/2000/svg" width="512" height="512" viewBox="0 0 512 512"><g><path id="path1" fill="#FCFCFC" d="M10.630419,27.759529L10.613582,27.830112C10.593842,27.927279 10.583998,28.026131 10.583998,28.126249 10.583998,29.146183 11.622998,29.97513 12.900998,29.97513 14.178997,29.97513 15.217996,29.146183 15.217996,28.126249 15.217996,28.017132 15.206184,27.9097 15.182717,27.804379L15.171502,27.761478 15.023141,27.772913C14.332464,27.821218 13.626645,27.845999 12.910864,27.845999 12.205551,27.845999 11.509418,27.821779 10.827588,27.77457z M12.910864,1.9999981C10.201867,1.9999981,7.9988651,4.2720013,7.9988651,7.0640011L7.9988651,8.1159992C7.9988651,14.692999 5.196865,18.046 2.3258647,20.915998 2.0148603,21.226999 1.9808639,21.634001 2.0078718,21.92 2.0648634,22.544001 2.4428691,23.180998 2.9718604,23.544001 5.0398674,24.963999 8.8478636,25.845999 12.910864,25.845999 17.031848,25.845999 20.865844,24.946001 22.917846,23.496 23.397855,23.157 23.727857,22.576998 23.778852,21.981001 23.805845,21.668001 23.764844,21.224001 23.419843,20.879 20.813858,18.273001 17.821855,14.467001 17.821855,8.1159992L17.821855,7.0640011C17.821855,4.2720013,15.618855,1.9999981,12.910864,1.9999981z M12.910864,0C16.721851,0,19.821855,3.1680012,19.821855,7.0640011L19.821855,8.1159992C19.821855,13.699999 22.35585,16.987001 24.833845,19.464998 25.526853,20.157999 25.859844,21.112001 25.770854,22.150999 25.669843,23.336 25.034849,24.449999 24.071851,25.129999 22.492259,26.246281 20.152114,27.067125 17.43522,27.499554L17.165912,27.540312 17.181747,27.626953C17.205808,27.791958 17.217996,27.958761 17.217996,28.126249 17.217996,30.248114 15.280997,31.975002 12.900998,31.975002 10.520997,31.975002 8.5839982,30.248114 8.5839982,28.126249 8.5839982,27.972509 8.5943732,27.818895 8.6148572,27.666483L8.6367535,27.536291 8.4436392,27.507421C5.7551112,27.084829 3.4273345,26.282686 1.8398727,25.191999 0.82586588,24.497 0.12686125,23.312998 0.015868756,22.103998 -0.077133356,21.096998 0.24085958,20.171999 0.91186436,19.502001 4.2108578,16.203001 5.9988665,13.412001 5.9988665,8.1159992L5.9988665,6.8700008C5.9988665,6.8309994 6.0008654,6.7919979 6.0048632,6.7539997 6.1648664,3.0020008 9.2008595,0 12.910864,0z" transform="rotate(0,256,256) translate(106.813906613593,71) scale(11.5715394375246,11.5715394375246)"/></g></svg>