<svg width="44" height="44" viewBox="0 0 44 44" fill="none" xmlns="http://www.w3.org/2000/svg">
<g clip-path="url(#clip0)">
<path d="M7.73874 34.0269C7.12274 34.0269 6.53058 34.1806 6.00522 34.4693C3.23776 30.9217 1.71875 26.5147 1.71875 22C1.71875 10.8167 10.8167 1.71875 22 1.71875C23.3596 1.71875 24.7184 1.85403 26.0391 2.12091C26.5037 2.2149 26.9575 1.91412 27.0515 1.44885C27.1455 0.983582 26.8447 0.530396 26.3795 0.436066C24.9471 0.146698 23.4737 0 22 0C16.1237 0 10.5988 2.28842 6.44363 6.44363C2.28842 10.5988 0 16.1237 0 22C0 26.9431 1.67847 31.767 4.73428 35.6342C4.34085 36.222 4.12936 36.9128 4.12936 37.6363C4.12936 38.6004 4.505 39.5067 5.1868 40.1882C5.86826 40.87 6.77463 41.2456 7.73874 41.2456C8.70285 41.2456 9.60922 40.87 10.291 40.1882C10.9728 39.5067 11.3481 38.6 11.3481 37.6359C11.3481 36.6721 10.9728 35.7654 10.291 35.084C9.60922 34.4022 8.70285 34.0269 7.73874 34.0269V34.0269ZM9.07547 38.973C8.71863 39.3302 8.24362 39.5269 7.73874 39.5269C7.23386 39.5269 6.75919 39.3302 6.40201 38.973C6.04483 38.6158 5.84811 38.1411 5.84811 37.6363C5.84811 37.131 6.04483 36.6564 6.40201 36.2992C6.75885 35.942 7.23386 35.7456 7.73874 35.7456C8.24362 35.7456 8.71829 35.9424 9.07547 36.2992C9.43265 36.6564 9.62936 37.131 9.62936 37.6363C9.62936 38.1411 9.43265 38.6158 9.07547 38.973V38.973Z" fill="white"/>
<path d="M39.2645 8.36484C40.1987 6.96332 40.0487 5.04718 38.813 3.81149C38.1312 3.13004 37.2248 2.75439 36.2607 2.75439C35.2966 2.75439 34.3902 3.13004 33.7084 3.81149C33.0266 4.49329 32.6513 5.39966 32.6513 6.36377C32.6513 7.32788 33.0266 8.23425 33.7084 8.91605C34.3902 9.59784 35.2966 9.97314 36.2607 9.97314C36.8767 9.97314 37.4689 9.8194 37.9942 9.5307C40.7617 13.0786 42.2807 17.4853 42.2807 22C42.2807 33.1833 33.1827 42.2813 21.9994 42.2813C20.6533 42.2813 19.3072 42.1487 17.999 41.8868C17.5337 41.7939 17.0809 42.0956 16.9875 42.5609C16.8945 43.0265 17.1963 43.479 17.6616 43.5724C19.0806 43.856 20.5402 44 21.9994 44C27.8757 44 33.4006 41.7116 37.5558 37.5564C41.711 33.4012 43.9994 27.8763 43.9994 22C43.9994 17.0566 42.3206 12.2324 39.2645 8.36484V8.36484ZM34.924 7.70084C34.5668 7.34366 34.3701 6.86899 34.3701 6.36377C34.3701 5.85889 34.5668 5.38422 34.924 5.02704C35.2808 4.66986 35.7558 4.47314 36.2607 4.47314C36.7656 4.47314 37.2406 4.66986 37.5978 5.02704C38.3346 5.76422 38.3346 6.96365 37.5978 7.70084C37.2406 8.05768 36.7656 8.25439 36.2607 8.25439C35.7555 8.25439 35.2808 8.05768 34.924 7.70084Z" fill="white"/>
<path d="M18.4541 36.7812C18.4541 37.2559 18.8391 37.6406 19.3135 37.6406H24.6869C25.1616 37.6406 25.5463 37.2559 25.5463 36.7812V35.1152C26.6762 34.8111 27.7565 34.3633 28.7716 33.7785L29.9479 34.9547C30.109 35.1159 30.3276 35.2065 30.5558 35.2065C30.7834 35.2065 31.0023 35.1159 31.1635 34.9544L34.9615 31.1537C35.2968 30.818 35.2968 30.2738 34.9615 29.9385L33.7866 28.7635C34.3713 27.7484 34.8192 26.6682 35.1233 25.5382H36.783C37.2576 25.5382 37.6423 25.1535 37.6423 24.6788V19.3054C37.6423 18.8307 37.2576 18.446 36.783 18.446H35.123C34.8188 17.3164 34.3713 16.2361 33.7866 15.221L34.9551 14.0525C35.1162 13.8913 35.2069 13.6725 35.2069 13.4445C35.2065 13.2166 35.1159 12.9977 34.9548 12.8366L31.1537 9.03854C30.8184 8.70319 30.2742 8.70319 29.9385 9.03888L28.7716 10.2061C27.7565 9.62131 26.6762 9.17349 25.5463 8.86935V7.21875C25.5463 6.74408 25.1616 6.35938 24.6869 6.35938H19.3135C18.8391 6.35938 18.4541 6.74408 18.4541 7.21875V8.86969C17.3245 9.17349 16.2442 9.62131 15.2291 10.2061L14.0619 9.03888C13.7265 8.70352 13.1824 8.70319 12.8467 9.03854L9.04596 12.8369C8.88449 12.998 8.79385 13.2166 8.79385 13.4445C8.79385 13.6725 8.88449 13.8913 9.04562 14.0525L10.2142 15.221C9.6294 16.2361 9.18158 17.3161 8.87744 18.446H7.2208C6.74613 18.446 6.36142 18.8307 6.36142 19.3051L6.3584 24.6785C6.35806 24.9064 6.4487 25.1253 6.60983 25.2864C6.77097 25.4476 6.9895 25.5382 7.21777 25.5382H8.87744C9.18158 26.6682 9.6294 27.7484 10.2142 28.7635L9.03925 29.9385C8.70389 30.2738 8.70355 30.818 9.03925 31.1537L12.8373 34.9544C12.9984 35.1155 13.217 35.2065 13.4449 35.2065H13.4452C13.6732 35.2065 13.8917 35.1159 14.0528 34.9547L15.2288 33.7785C16.2442 34.3633 17.3245 34.8111 18.4541 35.1152V36.7812ZM15.5658 31.9711C15.2257 31.7512 14.7783 31.7989 14.4916 32.0852L13.4452 33.1316L10.8621 30.5464L11.9074 29.5007C12.1938 29.2144 12.2414 28.7669 12.0215 28.4268C11.2424 27.221 10.6946 25.8994 10.3938 24.4982C10.3085 24.1024 9.95871 23.8195 9.55353 23.8195H8.07749L8.0795 20.1648H9.55353C9.95871 20.1648 10.3085 19.8821 10.3938 19.486C10.6946 18.0851 11.2424 16.7635 12.0215 15.5577C12.2414 15.2177 12.1938 14.7702 11.9074 14.4838L10.8688 13.4449L13.4539 10.8617L14.4916 11.8997C14.7783 12.186 15.2254 12.2333 15.5658 12.0138C16.7713 11.2346 18.0929 10.6868 19.4941 10.386C19.8899 10.3008 20.1729 9.95062 20.1729 9.54578V8.07812H23.8275V9.54544C23.8275 9.95062 24.1102 10.3008 24.5063 10.3857C25.9072 10.6868 27.2291 11.2343 28.4346 12.0135C28.7747 12.2333 29.2221 12.186 29.5085 11.8993L30.5464 10.8617L33.1316 13.4449L32.093 14.4835C31.8063 14.7702 31.759 15.2177 31.9789 15.5577C32.758 16.7635 33.3055 18.0851 33.6066 19.486C33.6916 19.8821 34.0417 20.1648 34.4469 20.1648H35.9236V23.8195H34.4469C34.0417 23.8195 33.6919 24.1024 33.6066 24.4982C33.3058 25.8991 32.758 27.221 31.9789 28.4265C31.759 28.7669 31.8066 29.2144 32.093 29.5007L33.1383 30.5461L30.5552 33.1313L29.5088 32.0852C29.2221 31.7986 28.7747 31.7512 28.4346 31.9711C27.2288 32.7502 25.9072 33.2978 24.5063 33.5989C24.1102 33.6841 23.8275 34.0339 23.8275 34.4391V35.9219H20.1729V34.4391C20.1729 34.0343 19.8899 33.6841 19.4941 33.5989C18.0932 33.2981 16.7716 32.7502 15.5658 31.9711V31.9711Z" fill="white"/>
<path d="M29.1013 21.9998C29.1013 18.0843 25.9159 14.8989 22.0003 14.8989C18.0848 14.8989 14.8994 18.0843 14.8994 21.9998C14.8994 25.9154 18.0848 29.1008 22.0003 29.1008C25.9159 29.1008 29.1013 25.9154 29.1013 21.9998ZM16.6182 21.9998C16.6182 19.032 19.0325 16.6177 22.0003 16.6177C24.9682 16.6177 27.3825 19.0323 27.3825 21.9998C27.3825 24.9674 24.9682 27.382 22.0003 27.382C19.0325 27.382 16.6182 24.9677 16.6182 21.9998Z" fill="white"/>
<path d="M29.9131 3.25003C30.1393 3.25003 30.3609 3.15805 30.5207 2.99826C30.6805 2.83746 30.7725 2.61591 30.7725 2.38965C30.7725 2.16473 30.6808 1.94284 30.5207 1.78204C30.3609 1.62225 30.1393 1.53027 29.9131 1.53027C29.6862 1.53027 29.4656 1.62225 29.3058 1.78204C29.1457 1.94284 29.0537 2.16373 29.0537 2.38965C29.0537 2.61658 29.1457 2.83746 29.3058 2.99826C29.4656 3.15805 29.6862 3.25003 29.9131 3.25003Z" fill="white"/>
<path d="M14.125 40.7651C13.8991 40.7651 13.6772 40.8571 13.5174 41.0169C13.3576 41.1767 13.2656 41.3986 13.2656 41.6245C13.2656 41.8514 13.3576 42.0723 13.5174 42.2321C13.6772 42.3919 13.8991 42.4839 14.125 42.4839C14.3509 42.4839 14.5728 42.3919 14.7326 42.2321C14.8924 42.0723 14.9844 41.8504 14.9844 41.6245C14.9844 41.3986 14.8924 41.1767 14.7326 41.0169C14.5728 40.8571 14.3509 40.7651 14.125 40.7651Z" fill="white"/>
</g>
<defs>
<clipPath id="clip0">
<rect width="44" height="44" fill="white"/>
</clipPath>
</defs>
</svg>
