<svg width="44" height="44" viewBox="0 0 44 44" fill="none" xmlns="http://www.w3.org/2000/svg">
<g clip-path="url(#clip0)">
<path d="M43.5862 36.0936L40.7311 33.2386C40.4794 32.9869 40.0713 32.9869 39.8196 33.2386C39.5679 33.4903 39.5679 33.8984 39.8196 34.15L42.6747 37.0051C42.8006 37.1309 42.9656 37.1939 43.1305 37.1939C43.2954 37.1939 43.4604 37.131 43.5862 37.0051C43.838 36.7534 43.838 36.3453 43.5862 36.0936Z" fill="white"/>
<path d="M16.407 28.5109C16.407 28.8669 16.6956 29.1554 17.0516 29.1554C17.4075 29.1554 17.6961 28.8669 17.6961 28.5109V27.5168C18.646 27.155 19.3228 26.2353 19.3228 25.16C19.3228 23.9977 18.5322 23.0173 17.4607 22.7266C17.6979 22.3423 17.8352 21.8901 17.8352 21.4063C17.8352 20.0189 16.7088 18.8898 15.3225 18.8851C15.5278 18.5203 15.6455 18.1 15.6455 17.6525C15.6455 16.2622 14.5144 15.1311 13.1241 15.1311H11.884C12.0892 14.7664 12.2068 14.3462 12.2068 13.8988C12.2068 12.5085 11.0757 11.3774 9.68542 11.3774H9.65414C9.29819 11.3774 9.00961 11.666 9.00961 12.0219C9.00961 12.3779 9.29819 12.6665 9.65414 12.6665H9.68542C10.3649 12.6665 10.9178 13.2193 10.9178 13.8988C10.9178 14.5783 10.3649 15.1311 9.68542 15.1311H6.73579C6.05628 15.1311 5.50345 14.5783 5.50345 13.8988C5.50345 13.2669 5.9957 12.728 6.62407 12.6719C6.97856 12.6402 7.24033 12.3271 7.20871 11.9725C7.17708 11.6179 6.86418 11.3564 6.50935 11.3879C6.17024 11.4182 5.85295 11.5136 5.56867 11.6606L1.3268 7.41876C1.07509 7.16705 0.666971 7.16705 0.415346 7.41876C0.163635 7.67047 0.163635 8.07859 0.415346 8.33022L4.61417 12.5291C4.36056 12.9236 4.21447 13.3937 4.21447 13.8988C4.21447 15.2891 5.34558 16.4202 6.73588 16.4202H7.05436C6.84914 16.7848 6.73149 17.2052 6.73149 17.6525C6.73149 19.0428 7.8626 20.1739 9.2529 20.1739H9.28831C9.08309 20.5387 8.96544 20.9589 8.96544 21.4063C8.96544 22.7966 10.0965 23.9277 11.4868 23.9277H12.3117C12.1065 24.2923 11.9888 24.7127 11.9888 25.16C11.9888 26.5503 13.1199 27.6814 14.5102 27.6814H16.4072V28.5109H16.407ZM8.02038 17.6525C8.02038 16.973 8.57322 16.4202 9.25273 16.4202H13.124C13.8035 16.4202 14.3564 16.973 14.3564 17.6525C14.3564 18.3321 13.8035 18.8849 13.124 18.8849H9.25273C8.57322 18.8849 8.02038 18.3321 8.02038 17.6525ZM10.2543 21.4063C10.2543 20.7268 10.8072 20.1739 11.4867 20.1739H15.3138C15.9933 20.1739 16.5462 20.7268 16.5462 21.4063C16.5462 22.0858 15.9933 22.6386 15.3138 22.6386H11.4867C10.8071 22.6386 10.2543 22.0858 10.2543 21.4063ZM13.2777 25.16C13.2777 24.4805 13.8305 23.9277 14.51 23.9277H16.8014C17.4809 23.9277 18.0337 24.4805 18.0337 25.16C18.0337 25.8396 17.4809 26.3924 16.8014 26.3924H14.51C13.8304 26.3923 13.2777 25.8396 13.2777 25.16Z" fill="white"/>
<path d="M39.6459 27.0523C39.6516 26.2753 39.3521 25.5446 38.8026 24.9951L35.0652 21.2577C34.3937 20.5863 33.5672 20.0593 32.6751 19.7337L27.6406 17.8967L25.8036 12.8622C25.4781 11.9701 24.9512 11.1436 24.2796 10.4721L21.173 7.36541C20.05 6.24247 18.2228 6.24247 17.0999 7.36541C16.7822 7.68312 16.5492 8.06632 16.4093 8.48062L8.56863 0.200889C8.32379 -0.0576112 7.91585 -0.0686972 7.65743 0.176053C7.39893 0.420803 7.38785 0.828748 7.6326 1.08725L23.2726 17.603C23.3413 17.6755 23.4258 17.7311 23.5197 17.7653L32.2334 20.9447C32.9502 21.2063 33.6143 21.6298 34.1539 22.1694L37.8912 25.9067C38.1947 26.2102 38.3601 26.6137 38.3569 27.043C38.3537 27.4721 38.1824 27.8732 37.8744 28.1722C37.2536 28.7748 36.2516 28.7667 35.6404 28.154L32.5226 25.0306C32.3383 24.846 32.0609 24.7905 31.82 24.8903C31.5791 24.99 31.4219 25.2251 31.4219 25.4858V36.5414C31.4219 37.2209 30.8691 37.7737 30.1896 37.7737C29.51 37.7737 28.9572 37.2209 28.9572 36.5414V32.6513C28.9572 32.2954 28.6686 32.0068 28.3127 32.0068C27.9567 32.0068 27.6682 32.2954 27.6682 32.6513V35.5367C27.6682 35.8741 27.5343 36.1891 27.2914 36.4235C27.0486 36.6578 26.7284 36.7802 26.3903 36.7682C25.7358 36.7449 25.2035 36.1723 25.2035 35.4916V31.3627C25.2035 31.0067 24.9149 30.7182 24.5589 30.7182C24.203 30.7182 23.9144 31.0067 23.9144 31.3627V34.5293C23.9144 35.2088 23.3616 35.7617 22.6821 35.7617C22.0025 35.7617 21.4497 35.2088 21.4497 34.5293V30.4305C21.4497 30.0746 21.1611 29.786 20.8052 29.786C20.4492 29.786 20.1607 30.0746 20.1607 30.4305V32.512C20.1607 32.8495 20.0268 33.1645 19.784 33.3989C19.5413 33.6332 19.2208 33.7556 18.8828 33.7436C18.2284 33.7203 17.696 33.1477 17.696 32.4671V31.5978C17.696 31.2419 17.4075 30.9533 17.0515 30.9533C16.6956 30.9533 16.407 31.2419 16.407 31.5978V32.4671C16.407 33.8336 17.4972 34.9843 18.8371 35.0318C19.3109 35.0488 19.767 34.9363 20.1671 34.7096C20.2598 36.0162 21.3524 37.0507 22.6821 37.0507C23.2315 37.0507 23.7403 36.8742 24.1549 36.5747C24.5481 37.4186 25.3819 38.0222 26.3445 38.0564C26.9079 38.0769 27.4481 37.9133 27.8976 37.5919C28.2968 38.4591 29.174 39.0627 30.1896 39.0627C30.4769 39.0627 30.7529 39.0137 31.0103 38.9248L35.8964 43.8108C36.0222 43.9366 36.1872 43.9996 36.3521 43.9996C36.517 43.9996 36.6821 43.9367 36.8079 43.8108C37.0596 43.5591 37.0596 43.151 36.8079 42.8994L32.0965 38.188C32.4788 37.7459 32.711 37.1703 32.711 36.5413V27.0437L37.6357 31.9665C37.7615 32.0923 37.9265 32.1553 38.0914 32.1553C38.2563 32.1553 38.4213 32.0924 38.5472 31.9665C38.7989 31.7148 38.7989 31.3067 38.5472 31.055L37.3404 29.8483C37.8641 29.7433 38.3638 29.4935 38.7723 29.0969C39.33 28.5555 39.6402 27.8295 39.6459 27.0523V27.0523ZM17.5701 9.68143C17.4793 9.16924 17.6444 8.64416 18.0115 8.27704C18.6319 7.65683 19.6412 7.65674 20.2616 8.27704L23.3683 11.3837C23.9078 11.9233 24.3313 12.5873 24.5928 13.3042L26.0578 17.3193L24.1042 16.6065C24.1041 16.6064 17.5718 9.69105 17.5701 9.68143V9.68143Z" fill="white"/>
</g>
<defs>
<clipPath id="clip0">
<rect width="44" height="44" fill="white"/>
</clipPath>
</defs>
</svg>
