<svg xmlns="http://www.w3.org/2000/svg" width="512" height="512" viewBox="0 0 512 512"><g><path id="path1" fill="#EFEFEF" d="M14.84701,17.964011L26.333019,17.964011 26.333019,19.336007 14.84701,19.336007z M8.8010089,15.586012C10.733009,16.087016,12.265016,17.575011,12.830011,19.477009L1.9150023,19.477009C2.4660053,17.627009 3.9300031,16.175013 5.7850076,15.635012 5.9350096,16.587014 6.5520064,17.304013 7.2900063,17.304013 8.0410058,17.304013 8.6650073,16.565011 8.8010089,15.586012z M19.50202,13.977018L26.29002,13.977018 26.29002,15.349014 19.50202,15.349014z M7.3170068,11.396021C8.4070117,11.396021 9.2910067,12.279019 9.2910067,13.370017 9.2910067,14.460015 8.4070117,15.344017 7.3170068,15.344017 6.22601,15.344017 5.3440057,14.460015 5.3440057,13.370017 5.3440057,12.279019 6.22601,11.396021 7.3170068,11.396021z M22.590021,8.1200252C22.632021,8.1220279,22.673021,8.1370273,22.707018,8.1640277L25.202022,10.243023C25.291019,10.319023 25.30402,10.451023 25.229023,10.542022 25.205021,10.570022 25.172023,10.593021 25.13702,10.606021L22.104019,11.71002C22.034019,11.736021 21.955017,11.722021 21.898018,11.67502 21.840019,11.625021 21.812019,11.551019 21.82502,11.478021L22.35502,8.3020244C22.361017,8.2650256 22.377023,8.2310252 22.401018,8.2010265 22.448023,8.1460261 22.520021,8.1160274 22.590021,8.1200252z M0,4.6540318L24.443018,4.6540318 23.503023,5.7710304 1.0840006,5.7710304 1.0840006,21.591004 27.110027,21.591004 27.110027,9.5040259 28.322019,8.0620265 28.322019,22.771002 0,22.771002z M26.961025,2.8160334C26.975017,2.8150339 26.989025,2.8150339 27.003017,2.8160334 27.044017,2.820035 27.083019,2.8360338 27.115017,2.8630343L29.612028,4.9320312C29.701017,5.0060325,29.714018,5.138032,29.639021,5.2280321L25.995022,9.6300254C25.959018,9.6720252 25.909023,9.6990256 25.852024,9.7040229 25.796024,9.709024 25.740024,9.6920257 25.698024,9.6570258L23.207018,7.5810285C23.11902,7.5070276,23.10602,7.3750277,23.179018,7.285028L26.819027,2.8910341C26.854015,2.8490343,26.905025,2.8210344,26.961025,2.8160334z M29.721021,3.9979772E-05C29.938017,-0.0019588192,30.145017,0.071039106,30.31102,0.20803968L31.672027,1.3340372C32.067032,1.6650382,32.11203,2.2670345,31.770019,2.6790366L30.414032,4.3180337C30.338028,4.4080339,30.204023,4.4220338,30.115019,4.3500314L27.638029,2.299036C27.59503,2.2630367 27.569029,2.2130377 27.565031,2.1570382 27.560024,2.100035 27.578031,2.0440354 27.615019,2.0000367L28.972028,0.36103956C29.139021,0.16003966 29.37103,0.03404042 29.627027,0.0050410476 29.659025,0.0020389768 29.690031,4.0078758E-05 29.721021,3.9979772E-05z" transform="rotate(0,256,256) translate(110,152.107304215431) scale(9.125,9.125)"/></g></svg>