<svg id="Capa_1" enable-background="new 0 0 511.997 511.997" height="512" viewBox="0 0 511.997 511.997" width="512" xmlns="http://www.w3.org/2000/svg"><g><g><path d="m382.688 504.497h-253.378c20.569-34.769 55.034-60.34 95.755-69.054v-53.611h61.869v53.611c40.72 8.714 75.185 34.285 95.754 69.054z" fill="#b3e59f"/><path d="m242.16 381.828v53.615c-18.228 8.709-33.647 34.287-42.856 69.054h-69.994c20.568-34.767 55.035-60.345 95.752-69.054v-53.615z" fill="#95d6a4"/><path d="m287.767 415.152h-64.694c-7.069 0-12.8-5.731-12.8-12.8v-7.72c0-7.069 5.731-12.8 12.8-12.8h64.694c7.069 0 12.8 5.731 12.8 12.8v7.72c0 7.069-5.731 12.8-12.8 12.8z" fill="#b3e59f"/><path d="m260.98 415.155h-37.907c-7.069 0-12.799-5.729-12.799-12.799v-7.719c0-7.069 5.729-12.809 12.799-12.809h37.907c-7.069 0-12.799 5.74-12.799 12.809v7.719c0 7.07 5.729 12.799 12.799 12.799z" fill="#95d6a4"/><path d="m403.797 266.102v-183.413c0-26.608-21.577-48.167-48.185-48.167-17.739 0-33.23 9.595-41.58 23.876-19.572-30.602-53.821-50.899-92.843-50.899-30.412 0-57.953 12.327-77.887 32.261s-32.261 47.459-32.261 77.887v147.589" fill="#aa7a63"/><path d="m111.04 265.235v-147.587c0-30.427 12.329-57.955 32.267-77.893 19.928-19.928 47.476-32.257 77.883-32.257 16.839 0 32.797 3.79 47.066 10.549-11.499 5.44-21.908 12.819-30.807 21.708-19.938 19.938-32.257 47.466-32.257 77.893v147.587z" fill="#986b54"/><g fill="#ffcbbe"><circle cx="118.491" cy="272.403" r="39.61"/><circle cx="393.513" cy="272.403" r="39.61"/></g><path d="m373.674 195.984v79.593c0 59.885-48.546 108.431-108.431 108.431h-18.478c-59.885 0-108.441-48.546-108.441-108.431v-79.593c0-.32 0-.65.01-.97.29-36.927 40.256-59.605 72.564-41.696 13.359 7.399 28.738 11.619 45.106 11.619 36.617 0 68.314-21.118 83.523-51.846 21.108 21.258 34.147 50.546 34.147 82.893z" fill="#ffddce"/><path d="m291.255 380.856c-8.329 2.06-17.039 3.15-26.008 3.15h-18.479c-59.885 0-108.441-48.546-108.441-108.431v-79.593c0-.32 0-.65.01-.97.29-36.927 40.257-59.605 72.564-41.696 4.42 2.45 9.059 4.55 13.889 6.259-9.559 8.519-15.848 20.868-15.959 35.437-.01.32-.01.65-.01.97v79.593c.001 50.916 35.108 93.642 82.434 105.281z" fill="#ffcbbe"/></g><g><path d="m411.301 228.789v-146.095c0-30.7-24.98-55.676-55.686-55.676-15.921 0-31.006 6.909-41.459 18.549-22.224-28.714-56.248-45.567-92.969-45.567-31.426 0-60.969 12.236-83.187 34.454-22.225 22.225-34.464 51.771-34.464 83.197v110.085c-18.667 6.266-32.157 23.913-32.157 44.664 0 25.977 21.133 47.11 47.109 47.11 6.78 0 13.334-1.424 19.365-4.153 11.574 31.583 36.522 56.766 67.948 68.672-1.904 3.092-3.023 6.718-3.023 10.608v7.719c0 9.283 6.271 17.111 14.793 19.52v7.631c-5.396 1.38-10.694 3.045-15.812 4.971-3.877 1.459-5.837 5.784-4.378 9.661 1.132 3.007 3.987 4.86 7.021 4.86.878 0 1.771-.155 2.641-.482 6.285-2.365 12.88-4.295 19.601-5.736 3.458-.741 5.928-3.797 5.928-7.333v-12.792h46.859v12.792c0 3.538 2.472 6.594 5.932 7.334 33.487 7.161 63.239 26.64 83.402 54.216h-225.541c10.451-14.277 23.604-26.569 38.587-35.979 3.508-2.203 4.565-6.833 2.362-10.34-2.203-3.508-6.834-4.565-10.341-2.362-20.826 13.081-38.457 31.187-50.986 52.362-1.371 2.318-1.395 5.194-.06 7.534 1.334 2.34 3.821 3.785 6.515 3.785h253.38c2.693 0 5.181-1.445 6.515-3.784 1.335-2.34 1.312-5.216-.06-7.534-20.93-35.379-55.207-61.057-94.705-71.172v-7.996c7.927-2.765 13.64-10.296 13.64-19.154v-7.719c0-3.742-1.035-7.239-2.807-10.253 31.865-11.758 57.19-37.134 68.877-69.033 6.039 2.733 12.595 4.159 19.368 4.159 25.977 0 47.109-21.133 47.109-47.11 0-19.685-12.137-36.578-29.317-43.613zm-262.693-183.728c19.383-19.385 45.16-30.061 72.579-30.061 35.183 0 67.528 17.733 86.524 47.437 1.407 2.201 3.899 3.506 6.468 3.458 2.611-.052 5.007-1.458 6.325-3.713 7.271-12.437 20.726-20.164 35.111-20.164 22.435 0 40.686 18.247 40.686 40.676v142.686c-.925-.054-1.854-.09-2.792-.09-4.183 0-8.333.562-12.338 1.647v-30.949c0-13.275-2.069-26.351-6.149-38.865-1.285-3.938-5.519-6.091-9.456-4.805-3.938 1.284-6.09 5.518-4.806 9.456 3.591 11.01 5.411 22.522 5.411 34.215v17.191l-9.006 4.885c-4.417-10.305-14.658-17.543-26.561-17.543h-38.809c-14.501 0-26.537 10.743-28.575 24.687-2.307-.702-4.732-1.078-7.217-1.078-2.484 0-4.91.377-7.218 1.078-2.039-13.944-14.074-24.687-28.575-24.687h-38.81c-11.903 0-22.145 7.238-26.561 17.543l-9.018-4.892v-17.184c0-.245-.001-.497.006-.741.002-.057.003-.113.004-.17.113-14.467 7.658-27.468 20.182-34.779 12.812-7.48 28.232-7.637 41.255-.419 14.833 8.216 31.685 12.559 48.733 12.559 34.932 0 66.596-17.612 84.963-46.61 2.785 3.371 5.373 6.911 7.74 10.589 2.241 3.483 6.883 4.49 10.365 2.248 3.483-2.242 4.49-6.882 2.248-10.365-4.753-7.385-10.293-14.281-16.465-20.496-1.705-1.717-4.133-2.508-6.524-2.118-2.39.388-4.444 1.906-5.519 4.076-14.556 29.408-43.987 47.677-76.809 47.677-14.513 0-28.851-3.693-41.464-10.679-17.69-9.807-38.658-9.589-56.087.585-17.115 9.991-27.436 27.758-27.618 47.537-.01.367-.011.742-.011 1.108v30.946c-3.988-1.079-8.12-1.637-12.285-1.642v-107.644c.001-27.42 10.681-53.199 30.073-72.59zm195.879 184.344v37.45c0 7.656-6.229 13.884-13.884 13.884h-38.809c-7.655 0-13.884-6.228-13.884-13.884v-37.45c0-7.656 6.229-13.884 13.884-13.884h38.809c7.656 0 13.884 6.228 13.884 13.884zm-110.393 0v37.45c0 7.656-6.229 13.884-13.884 13.884h-38.81c-7.655 0-13.884-6.228-13.884-13.884v-37.45c0-7.656 6.229-13.884 13.884-13.884h38.81c7.655 0 13.884 6.228 13.884 13.884zm-115.606 75.105c-17.705 0-32.109-14.404-32.109-32.11s14.404-32.11 32.109-32.11c4.248 0 8.444.842 12.333 2.455v16.765c-3.001-1.222-6.313-2.034-9.918-2.396-7.456-.749-13.556.675-14.227.839-4.022.987-6.483 5.049-5.496 9.072s5.048 6.481 9.072 5.496c.04-.01 4.269-.972 9.151-.482 5.252.528 9.013 2.413 11.445 5.742.147 7.868 1.083 15.545 2.731 22.959-4.612 2.471-9.746 3.77-15.091 3.77zm169.284 84.818c2.922 0 5.299 2.382 5.299 5.309v7.719c0 2.922-2.377 5.299-5.299 5.299h-64.694c-2.922 0-5.299-2.377-5.299-5.299v-7.719c0-2.927 2.377-5.309 5.299-5.309h1.284c7.25 1.425 14.738 2.179 22.399 2.179h18.48c7.661 0 15.148-.755 22.397-2.179zm-22.531-12.821h-18.48c-55.658 0-100.939-45.277-100.939-100.93v-45.341l6.695 3.632v32.986c0 15.927 12.957 28.884 28.884 28.884h38.81c15.927 0 28.884-12.957 28.884-28.884v-24.831c1.805-1.849 4.231-2.895 6.909-2.895 2.677 0 5.104 1.045 6.908 2.895v24.831c0 15.927 12.957 28.884 28.884 28.884h38.809c15.927 0 28.884-12.957 28.884-28.884v-32.986l6.684-3.625v45.334c-.002 55.653-45.279 100.93-100.932 100.93zm128.268-71.997c-5.336 0-10.472-1.301-15.095-3.775 1.646-7.407 2.581-15.077 2.729-22.937 2.375-3.26 6.022-5.138 11.1-5.72 4.993-.571 9.365.411 9.539.451 4.014.969 8.058-1.491 9.043-5.503.987-4.023-1.474-8.084-5.496-9.072-.672-.165-6.771-1.588-14.228-.839-3.609.363-6.925 1.176-9.93 2.401v-16.764c3.892-1.617 8.09-2.462 12.338-2.462 17.705 0 32.109 14.405 32.109 32.11s-14.404 32.11-32.109 32.11z"/><ellipse cx="205.111" cy="245.618" rx="13.122" ry="17.977"/><path d="m306.893 227.64c-7.235 0-13.121 8.065-13.121 17.977 0 9.913 5.886 17.978 13.121 17.978s13.122-8.065 13.122-17.978c0-9.912-5.887-17.977-13.122-17.977z"/><path d="m179.49 184.767c-2.93 2.929-2.93 7.677-.001 10.607 2.929 2.928 7.678 2.929 10.606 0 5.951-5.95 15.631-5.95 21.582 0 1.464 1.464 3.384 2.197 5.303 2.197s3.839-.732 5.304-2.197c2.929-2.929 2.929-7.678-.001-10.607-11.797-11.798-30.996-11.798-42.793 0z"/><path d="m290.852 184.767c-2.93 2.929-2.93 7.677-.001 10.607 2.929 2.928 7.678 2.929 10.606 0 5.951-5.95 15.631-5.95 21.582 0 1.464 1.464 3.384 2.197 5.303 2.197s3.839-.732 5.304-2.197c2.929-2.929 2.929-7.678-.001-10.607-11.797-11.798-30.996-11.798-42.793 0z"/><path d="m279.796 304.04c-3.335-2.46-8.029-1.752-10.488 1.581-3.149 4.266-7.998 6.713-13.304 6.713s-10.154-2.447-13.304-6.713c-2.46-3.333-7.154-4.04-10.488-1.581-3.332 2.46-4.04 7.156-1.58 10.488 5.918 8.018 15.403 12.805 25.372 12.805s19.454-4.787 25.372-12.805c2.46-3.333 1.752-8.029-1.58-10.488z"/></g></g></svg>