<?xml version="1.0" encoding="utf-8"?>
<svg xmlns="http://www.w3.org/2000/svg" height="512" width="512" viewBox="0 0 512 512">
  <g>
    <path id="path1" transform="rotate(0,256,256) translate(110,110.000069618225) scale(9.125,9.125)  " fill="#EFEFEF" d="M11.552225,14.262946C11.892217,15.06995,12.330216,15.821961,12.836207,16.522947L3.0813175,26.278892C2.6553192,26.704916 2.6563187,27.398882 3.0823169,27.825884 3.5073073,28.250869 4.2032988,28.250869 4.6292966,27.825884L14.279185,18.172905C15.478177,19.307911,16.916164,20.187912,18.513147,20.732954L18.513147,22.466894C18.513147,23.016941,18.065155,23.464937,17.515157,23.464937L14.771184,23.464937 14.771184,26.208885C14.771184,26.758932,14.32319,27.206928,13.7742,27.206928L11.030227,27.206928 11.030227,29.950874C11.030227,30.50086,10.581227,30.948856,10.032237,30.948856L7.2362626,30.948856 6.5392793,31.645876C6.114281,32.071901 1.8413252,32.296873 0.77233651,31.228885 -0.29765126,30.159858 -0.071648174,25.886924 0.35434201,25.459924z M25.373073,3.3809685C23.581085,3.3809687 22.129104,4.8350035 22.129104,6.6249749 22.129104,8.417998 23.581085,9.8709952 25.373073,9.8709952 27.165045,9.8709952 28.618032,8.417998 28.618032,6.6249749 28.618032,4.8350035 27.165045,3.3809687 25.373073,3.3809685z M22.25511,0C27.636049,1.024282E-07 32,4.361983 32,9.743981 32,15.125919 27.636049,19.488939 22.25511,19.488939 16.873165,19.488939 12.510207,15.125919 12.510207,9.743981 12.510207,4.361983 16.873165,1.024282E-07 22.25511,0z" />
  </g>
</svg>

