<?xml version="1.0" encoding="utf-8"?>
<svg xmlns="http://www.w3.org/2000/svg" height="512" width="512" viewBox="0 0 512 512">
  <g>
    <path id="path1" transform="rotate(0,256,256) translate(110,110.009189024046) scale(9.12442242284935,9.12442242284935)  " fill="#EFEFEF" d="M9.0010233,26L15.001024,26C15.554024,26 16.001024,26.447001 16.001024,27 16.001024,27.553 15.554024,28 15.001024,28L9.0010233,28C8.4480238,28 8.0010233,27.553 8.0010233,27 8.0010233,26.447001 8.4480238,26 9.0010233,26z M25.001024,24C25.554024,24,26.001024,24.447,26.001024,25L26.001024,28C26.001024,28.553 25.554024,29 25.001024,29 24.448024,29 24.001024,28.553 24.001024,28L24.001024,25C24.001024,24.447,24.448024,24,25.001024,24z M20.002023,23.000014L20.002023,30.000013 30.002024,30.000013 30.002024,23.000014z M9.0010233,22L15.001024,22C15.554024,22 16.001024,22.447 16.001024,23 16.001024,23.553 15.554024,24 15.001024,24L9.0010233,24C8.4480238,24 8.0010233,23.553 8.0010233,23 8.0010233,22.447 8.4480238,22 9.0010233,22z M25.00099,17.00003C23.34699,17.00003 22.00099,18.363024 22.00099,20.038016 22.00099,20.346264 22.04599,20.648325 22.135146,20.938714L22.155659,21.000013 27.84757,21.000013 27.874427,20.916636C27.95824,20.633325 28.00099,20.338764 28.00099,20.038016 28.00099,18.363024 26.65599,17.00003 25.00099,17.00003z M25.00099,15.000039C27.75799,15.000039 30.00099,17.260029 30.00099,20.038016 30.00099,20.28589 29.983412,20.531373 29.94836,20.773411L29.909907,21.000013 32.002024,21.000013 32.002024,32.000013 18.002024,32.000013 18.002024,21.000013 20.092859,21.000013 20.056467,20.791481C20.019552,20.543701 20.00099,20.292265 20.00099,20.038016 20.00099,17.260029 22.24499,15.000039 25.00099,15.000039z M12.455083,12.842014C10.424083,12.842014,8.8190832,14.145011,8.3920832,16.000006L16.519083,16.000006C16.092083,14.145011,14.487083,12.842014,12.455083,12.842014z M12.455022,6.5260105C11.37603,6.5260105 10.498038,7.4000111 10.498038,8.473012 10.498038,9.5470123 11.37603,10.422012 12.455022,10.422012 13.534014,10.422012 14.412007,9.5470123 14.412007,8.473012 14.412007,7.4000111 13.534014,6.5260105 12.455022,6.5260105z M12.455022,4.5260105C14.637005,4.5260105 16.411991,6.2970104 16.411991,8.473012 16.411991,9.6295433 15.911043,10.671774 15.114253,11.394743L15.093248,11.41291 15.155147,11.44039C17.22906,12.422747,18.630084,14.518167,18.630084,17.000003L18.630084,18 6.2810831,18 6.2810831,17.000003C6.2810831,14.518167,7.682106,12.422747,9.7556486,11.44039L9.8170471,11.413126 9.7957916,11.394743C8.9990015,10.671774 8.4980536,9.6295433 8.4980536,8.473012 8.4980536,6.2970104 10.273039,4.5260105 12.455022,4.5260105z M0,0L24,0 24,13 22,13 22,2 2,2 2,30 16,30 16,32 0,32z" />
  </g>
</svg>

