<?xml version="1.0" encoding="utf-8"?>
<svg xmlns="http://www.w3.org/2000/svg" height="512" width="512" viewBox="0 0 512 512">
  <g>
    <path id="path1" transform="rotate(0,256,256) translate(132.821619987488,110) scale(9.125,9.125)  " fill="#EFEFEF" d="M9.0146152,12.000011L7.8893296,21.000002 18.247608,21.000002 19.372322,12.000011z M8.4989855,0L10.483992,0.2480011 9.2646791,10.000011 19.622259,10.000011 20.871946,0 22.856945,0.2480011 21.637945,10.000011 26.997988,10.000011 26.997988,12.000011 21.387945,12.000011 20.262947,21.000002 26.998001,21.000002 26.998001,23.000002 20.012947,23.000002 18.887947,32 16.903948,31.752 17.997671,23.000002 7.6392657,23.000002 6.5139786,32 4.5299718,31.752 5.6239754,23.000002 0,23.000002 0,21.999995 0,21.000002 5.8739759,21.000002 6.9989783,12.000011 3.4809114E-05,12.000011 3.4809114E-05,10.000011 7.2489793,10.000011z" />
  </g>
</svg>

