<?xml version="1.0" ?><!DOCTYPE svg  PUBLIC '-//W3C//DTD SVG 1.1//EN'  'http://www.w3.org/Graphics/SVG/1.1/DTD/svg11.dtd'><svg enable-background="new 0 0 512 512" id="Layer_1" version="1.1" viewBox="0 0 512 512" xml:space="preserve" xmlns="http://www.w3.org/2000/svg" xmlns:xlink="http://www.w3.org/1999/xlink"><g><g><path d="M281.3,383.6c-13.8,0-24.6-3-32.8-8.9c-10.9-7.9-16.6-20.7-17-38.2c0-0.1,0-0.1,0-0.2V223.8c0-5,4-9,9-9    s9,4,9,9v112.3c0.3,11.7,3.4,19.5,9.5,23.9c8,5.8,26.9,9.9,71.3-3.6c4.8-1.4,9.8,1.2,11.2,6s-1.2,9.8-6,11.2    C313.7,380.3,295.8,383.6,281.3,383.6z" fill="#39475D"/><path d="M316.8,233.2C316.8,233.2,316.8,233.2,316.8,233.2l-76.4-0.4c-5,0-9-4.1-9-9c0-5,4-9,9-9c0,0,0,0,0,0    l76.4,0.4c5,0,9,4.1,9,9C325.8,229.2,321.8,233.2,316.8,233.2z M179.1,232.8c-4.8,0-8.8-3.8-9-8.6c-0.2-5,3.6-9.2,8.6-9.4    c4.2-0.2,18.9-1.7,31.5-13.5c14.1-13.2,21.2-34.7,21.2-63.8c0-5,4-9,9-9s9,4,9,9c0,34.3-9.1,60.2-26.9,76.9    c-16.7,15.6-35.7,18.1-43.1,18.4C179.3,232.8,179.2,232.8,179.1,232.8z" fill="#39475D"/></g></g></svg>