<svg xmlns="http://www.w3.org/2000/svg" width="512" height="512" viewBox="0 0 512 512"><g><path id="path1" fill="#EFEFEF" d="M3.5530132,21.802016L5.5530136,21.802016C5.5530136,24.540015 8.629014,26.768014 12.409014,26.768014 16.189014,26.768014 19.264015,24.540015 19.264015,21.802016L21.264015,21.802016C21.264015,25.643014 17.292015,28.768014 12.409014,28.768014 7.5250139,28.768014 3.5530133,25.643014 3.5530132,21.802016z M0,21.719997L2.0000014,21.719997C2.0000013,26.284984 6.6490035,29.999974 12.365007,29.999974 18.081009,29.999974 22.731012,26.284984 22.731012,21.719997L24.731012,21.719997C24.731012,27.388982 19.18301,31.999969 12.365007,31.999969 5.547003,31.999969 2.3841858E-07,27.388982 0,21.719997z M11.595046,19.870977C11.648024,20.172979 11.911025,20.409002 12.241042,20.409002 12.571029,20.409002 12.833023,20.174993 12.886032,19.873967z M11.938033,1.3619996C11.451033,1.3619998,11.041028,1.8179936,11.041028,2.3579723L11.041028,3.7210089 9.7930417,3.7210089C9.0830188,3.9249887 7.934031,4.4359752 6.9840178,5.7359635 5.8450398,7.7609884 5.9000325,9.4500143 6.107033,11.606998 6.472024,15.414982 6.5700159,17.016973 5.301033,18.437993 5.2800369,18.455999 5.2590103,18.476018 5.2380145,18.495L19.255025,18.526006C17.943043,17.054998 18.041035,15.451969 18.40505,11.651004 18.612051,9.4939596 18.666036,7.8049947 17.485035,5.7119767 16.487049,4.3549816 15.23604,3.8850106 14.556047,3.7210089L13.38704,3.7210089 13.38704,2.3579723C13.38704,1.8179936,12.976028,1.3619998,12.491043,1.3619996z M11.938033,0L12.491043,0C13.770035,0,14.810045,1.0570071,14.810045,2.3579723L14.810045,2.3829967C15.716021,2.5919806 17.376027,3.1979989 18.694051,4.997987 20.105033,7.4879777 20.044029,9.4569723 19.822042,11.776004 19.456045,15.593998 19.472036,16.677983 20.292045,17.59699 21.146049,18.367009 22.214044,18.537969 22.22503,18.539983L22.119043,19.893987 14.320023,19.877019C14.261033,20.929021 13.356034,21.771001 12.241042,21.771001 11.123029,21.771001 10.216016,20.924016 10.16203,19.867009L2.3900195,19.849981 2.2880294,18.495977C2.2950182,18.495 3.3670101,18.323003 4.2710334,17.502019 5.0390394,16.633975 5.0560377,15.552006 4.6900403,11.731998 4.4680245,9.4129659 4.4060125,7.4450089 5.7750328,5.0209972 7.0830169,3.2269906 8.6920276,2.5919806 9.6180234,2.3620001L9.6180234,2.3579723C9.6180234,1.0570071,10.65904,0,11.938033,0z" transform="rotate(0,256,256) translate(101.431025439287,56) scale(12.5000119209403,12.5000119209403)"/></g></svg>