<svg xmlns="http://www.w3.org/2000/svg" width="512" height="512" viewBox="0 0 512 512"><g><path id="path1" fill="#EFEFEF" d="M21.95403,17.991984C21.418994,17.991984 20.901048,18.095988 20.413986,18.301981 18.947062,18.920023 18.000037,20.342996 18.000037,21.928016 18.000037,24.097998 19.772992,25.863987 21.95403,25.863987 24.135068,25.863987 25.908024,24.097998 25.908024,21.928016 25.908024,19.757974 24.135068,17.991984 21.95403,17.991984z M14,2C10.968,2 8.5,4.467 8.5,7.5 8.5,10.438218 10.81616,12.845259 13.71746,12.99283L13.973209,12.999319 13.99999,12.998981 14.028269,12.999282 14.28254,12.99283C17.18384,12.845259 19.5,10.438218 19.5,7.5 19.5,4.467 17.032,2 14,2z M14,0C18.136,0 21.5,3.3639994 21.5,7.5 21.5,9.95575 20.314059,12.139339 18.484733,13.508212L18.265084,13.664515 18.347916,13.690549C19.928838,14.205567,21.41638,14.999679,22.730529,16.043987L22.859533,16.06051C25.714343,16.496664 27.908031,18.961853 27.908031,21.928016 27.908031,23.155371 27.532417,24.296956 26.889774,25.244501L26.822158,25.341668 31.710774,30.289007C32.099749,30.682009 32.095749,31.31501 31.702775,31.703012 31.507788,31.896012 31.253804,31.992013 30.999821,31.992013 30.741838,31.992013 30.483854,31.893012 30.288867,31.695011L25.410775,26.758325 25.398406,26.767325C24.425476,27.457641 23.23644,27.863986 21.95403,27.863986 18.67106,27.863986 16.00003,25.200963 16.00003,21.928016 16.00003,19.535989 17.428014,17.389995 19.637006,16.459026L19.698776,16.434728 19.515825,16.337959C17.927313,15.51958,16.164273,15.058827,14.361116,15.004429L14.036627,14.999535 14,15 13.959791,14.999489 13.690737,15.002884C7.2160902,15.166407,1.9999981,20.44972,1.9999981,26.921988L0,26.928988 0,26.921988C0,20.804376,3.9878578,15.595463,9.5144234,13.731753L9.7309518,13.661694 9.5152664,13.508212C7.6859417,12.139339 6.5,9.95575 6.5,7.5 6.5,3.3639994 9.8639998,0 14,0z" transform="rotate(0,256,256) translate(110,110.036540839762) scale(9.12499347329607,9.12499347329607)"/></g></svg>