<svg xmlns="http://www.w3.org/2000/svg" width="512" height="512" viewBox="0 0 512 512"><g><path id="path1" fill="#EFEFEF" d="M27.800018,21.800009C28.300018,21.800009 28.600006,22.099997 28.600006,22.599997 28.600006,23.099997 28.300018,23.4 27.800018,23.4 27.300018,23.4 27,23.099997 27,22.599997 27,22.200003 27.400024,21.800009 27.800018,21.800009z M27.100006,21.000004C25.800018,21.000004 24.800018,22.000006 24.800018,23.300009 24.800018,23.599997 24.900024,23.800009 24.900024,24.099997L22.100006,26.9 22.100006,28.200018 23.400024,28.200018 23.400024,27.4 24.200012,27.4 24.200012,26.600012 25,26.600012 26.200012,25.4C26.400024,25.500006 26.700012,25.500006 27,25.500006 28.300018,25.500006 29.300018,24.500006 29.300018,23.200003 29.400024,22.099997 28.400024,21.000004 27.100006,21.000004z M25.800018,18.500004C29.200012,18.500004 32,21.300007 32,24.700003 32,28.100012 29.200012,30.900002 25.800018,30.900002 22.400024,30.900002 19.600006,28.100012 19.600006,24.700003 19.600006,21.200001 22.400024,18.500004 25.800018,18.500004z M13.700012,1.2413238E-07C13.712513,-4.1377461E-08 13.723452,-4.1377461E-08 13.732826,1.2413238E-07 13.742203,-4.1377461E-08 13.750015,-4.1377461E-08 13.756266,1.2413238E-07 13.762516,-4.1377461E-08 13.767204,-4.1377461E-08 13.770329,1.2413238E-07 13.773455,-4.1377461E-08 13.775017,-4.1377461E-08 13.775017,1.2413238E-07L13.800018,1.2413238E-07C19.100006,-4.1377461E-08 20.100006,3.8000038 19.900024,5.1999982 19.800018,6.3999956 19.5,7.8999956 19.5,7.8999956 19.5,7.8999956 20.100006,8.1999991 20.100006,9.1999991 19.900024,11.800006 18.900024,10.699999 18.700012,11.800006 18.300018,14.000003 17.400024,14.099994 17.100006,14.899997 17,15.099994 17,15.300006 17,15.599995 17,17.700001 17.800018,18.800007 20.300018,19.899998 19.200012,21.200001 18.5,22.9 18.5,24.700003 18.5,27.100012 19.700012,29.299994 21.5,30.600014L0,30.600014 0,24.300009C0,23.300009 1.7000122,21.9 5.5,20.599995 9.3000183,19.200001 10.5,18.099995 10.5,15.599995 10.5,15.300006 10.5,15.099994 10.400024,14.899997 10.100006,14.099994 9.3000183,14.000003 8.8000183,11.800006 8.6000061,10.699999 7.6000061,11.800006 7.4000244,9.1999991 7.4000244,8.1999991 8,7.8999956 8,7.8999956 8,7.8999956 7.7000122,6.3999956 7.6000061,5.1999982 7.5,3.8000038 8.5,-4.1377461E-08 13.700012,1.2413238E-07z" transform="rotate(0,256,256) translate(110,115.018743038177) scale(9.125,9.125)"/></g></svg>