<svg xmlns="http://www.w3.org/2000/svg" width="512" height="512" viewBox="0 0 512 512"><g><path id="path1" fill="#EFEFEF" d="M15,24.906978L19.929946,24.906978 19.929946,26.906977 18.59713,26.906977 18.63631,26.981915C19.639611,28.811075 21.524405,30.00003 23.601958,30.00003 26.265025,30.00003 28.552973,28.105015 29.166983,25.394024L31.118995,25.835063C30.296002,29.465058 27.205936,32.000024 23.601958,32.000024 20.89812,32.000024 18.438957,30.527868 17.053283,28.237284L16.999978,28.147139 16.999978,30.109975 15,30.109975z M14,2C10.968,2 8.5,4.4669991 8.5,7.5 8.5,10.438218 10.81616,12.845259 13.71746,12.992829L13.973191,12.999319 13.999975,12.998981 14.028435,12.999278 14.282539,12.992829C17.18384,12.845259 19.5,10.438218 19.5,7.5 19.5,4.4669991 17.032,2 14,2z M14,0C18.136,0 21.5,3.3639984 21.5,7.5 21.5,9.9557495 20.314058,12.139338 18.484733,13.508211L18.266439,13.663549 18.281418,13.668178C19.838621,14.166802,21.305832,14.936102,22.609176,15.949142L22.737008,16.050806 22.930621,16.02944C23.151769,16.009933 23.375369,16.000004 23.600992,16.000004 26.114974,16.000004 28.402832,17.247063 29.827963,19.261932L30.000022,19.515482 30.000022,17.678978 32,17.678978 32,22.881975 27.070053,22.881975 27.070053,20.881976 28.490901,20.881976 28.45679,20.821911C27.42977,19.091894 25.611102,17.999999 23.600992,17.999998 20.933012,17.999999 18.644028,19.899993 18.033033,22.618985L16.082047,22.180987C16.618199,19.7929,18.134105,17.87725,20.133199,16.842426L20.282974,16.768894 20.062589,16.637124C18.348373,15.637675,16.401797,15.072419,14.400839,15.005667L14.034632,14.999559 14,14.999999 13.959784,14.999489 13.690724,15.002883C7.2160826,15.166406,1.9999962,20.449719,1.9999962,26.921988L0,26.928988 0,26.921988C0,20.804376,3.987854,15.595462,9.5144138,13.731752L9.7309494,13.661692 9.5152669,13.508211C7.6859417,12.139338 6.5,9.9557495 6.5,7.5 6.5,3.3639984 9.8639998,0 14,0z" transform="rotate(0,256,256) translate(110.000104427263,110) scale(9.12499347329607,9.12499347329607)"/></g></svg>