<?xml version="1.0" encoding="utf-8"?>
<svg xmlns="http://www.w3.org/2000/svg" height="512" width="512" viewBox="0 0 512 512">
  <g>
    <path id="path1" transform="rotate(0,256,256) translate(110,169.31971668178) scale(9.12471392157538,9.12471392157538)  " fill="#EFEFEF" d="M15.955595,5.00792C13.615532,5.00792 11.626661,6.9099409 11.51265,9.2629535 11.450638,10.524955 11.89265,11.718964 12.753603,12.623969 13.601616,13.514997 14.750529,14.005997 15.990506,14.007981L15.997586,14.007981C18.518555,14.007981 20.498514,12.029971 20.506449,9.5039527 20.510477,8.2909619 20.042465,7.155945 19.188471,6.3089544 18.342531,5.4689219 17.216568,5.0109412 16.006498,5.00792L15.987577,5.00792z M15.955595,3.0079064C15.987577,3.0079064 16.020535,3.0069298 16.053616,3.0079064 17.737558,3.0079064 19.390494,3.6909251 20.597513,4.888931 21.834438,6.1169364 22.512531,7.7579386 22.506428,9.5099647 22.494465,13.154978 19.637562,16.007994 15.998563,16.007994L15.988553,16.007994C14.19658,16.005004 12.532536,15.294 11.30562,14.003007 10.062592,12.697975 9.4275886,10.979976 9.5146238,9.1659686 9.6796609,5.7599394 12.563542,3.0079064 15.955595,3.0079064z M16.151735,1.9998558C15.382221,1.9882844 14.610852,2.0561711 13.813528,2.2039151 12.13862,2.5149221 10.494594,3.1449313 8.7896558,4.1309306 6.4226161,5.496937 4.2787181,7.2589423 2.2506634,9.5049598 4.623685,12.124973 7.112672,14.06798 9.8456746,15.436 11.97761,16.504 14.01958,17.037024 15.993558,16.998999L16.002592,16.998999 16.010525,16.998999C16.046536,16.998999 16.08157,16.998999 16.116604,16.998999 17.962532,16.998999 19.802477,16.554019 21.737515,15.640988 24.62347,14.279986 27.254423,12.27097 29.768435,9.5049598 28.044455,7.6029388 26.266398,6.0699389 24.337464,4.8159325 21.733486,3.1239047 19.377556,2.2409029 16.921526,2.0378987 16.664541,2.0163989 16.408241,2.0037131 16.151735,1.9998558z M16.188055,0.0013575708C16.489538,0.0056544765 16.789539,0.02015424 17.08754,0.044904186 19.847521,0.27290253 22.57552,1.28591 25.427418,3.1389193 27.637476,4.5759408 29.656376,6.3459417 31.598372,8.5499665 32.133398,9.157973 32.135351,9.8509709 31.603377,10.453972 28.80348,13.621992 25.855391,15.910002 22.591509,17.450021 20.383526,18.49202 18.26453,18.999013 16.117581,18.999013 16.046536,18.999013 15.975614,18.999013 15.901518,18.999013 13.610527,18.999013 11.33565,18.418015 8.9506646,17.224007 5.8276516,15.661008 3.0137171,13.419995 0.34467826,10.37197 -0.022261173,9.950977 -0.20829433,9.2689654 0.36774931,8.6139628 2.6516603,5.9969403 5.0807115,3.9629302 7.7896668,2.3979167 9.6946756,1.2979034 11.546584,0.59089787 13.448542,0.23689154 14.365799,0.067403397 15.283605,-0.011532759 16.188055,0.0013575708z" />
  </g>
</svg>

