<?xml version="1.0" encoding="utf-8"?>
<svg xmlns="http://www.w3.org/2000/svg" height="256" width="256" viewBox="0 0 256 256">
  <g>
    <path id="path1" transform="rotate(0,128,128) translate(1.36399841308594,0) scale(8,8)  " fill="#020101" d="M13.322023,3.2899933C12.914979,9.0090027,8.1029673,10.597992,8.1029673,10.597992L8.1029673,14.035995 11.607972,14.035995 11.607972,24.929993C12.203981,30.688995,23.55701,27.755005,23.55701,27.755005L23.55701,23.897003C16.714967,26.501999,16.688966,22.580994,16.688966,22.580994L16.688966,14.001999 23.172977,14.001999 23.172977,9.9620056 16.688966,9.9620056 16.688966,3.2899933z M2.7239996,0L28.937015,0C30.440005,0,31.659,1.2189941,31.659,2.7229919L31.659,29.276001C31.659,30.779999,30.440005,32,28.937015,32L2.7239996,32C1.2199708,32,-7.5113348E-08,30.779999,0,29.276001L0,2.7229919C-7.5113348E-08,1.2189941,1.2199708,0,2.7239996,0z" />
  </g>
</svg>

