<svg id="Capa_1" enable-background="new 0 0 512 512" height="512" viewBox="0 0 512 512" width="512" xmlns="http://www.w3.org/2000/svg"><g><g><path d="m382.5 504.5h-253.008c20.539-34.718 54.954-60.252 95.615-68.953v-53.533h61.778v53.533c40.661 8.701 75.076 34.235 95.615 68.953z" fill="#61a2f9"/><path d="m242.177 382.01v53.537c-18.202 8.696-33.598 34.237-42.794 68.953h-69.892c20.538-34.716 54.955-60.257 95.612-68.953v-53.537z" fill="#5490f9"/><path d="m287.718 415.285h-64.599c-7.059 0-12.781-5.722-12.781-12.781v-7.709c0-7.059 5.722-12.781 12.781-12.781h64.599c7.059 0 12.781 5.722 12.781 12.781v7.709c0 7.059-5.723 12.781-12.781 12.781z" fill="#61a2f9"/><path d="m260.969 415.288h-37.851c-7.059 0-12.78-5.721-12.78-12.78v-7.708c0-7.059 5.721-12.79 12.78-12.79h37.851c-7.059 0-12.78 5.731-12.78 12.79v7.708c0 7.059 5.721 12.78 12.78 12.78z" fill="#5490f9"/><g fill="#ffcbbe"><circle cx="393.307" cy="272.745" r="39.552"/><circle cx="118.687" cy="272.745" r="39.552"/></g><path d="m138.494 111.149h235.005v164.764c0 59.799-48.477 108.276-108.276 108.276h-18.453c-59.799 0-108.276-48.477-108.276-108.276z" fill="#ffddce"/><path d="m289.832 381.369c-7.908 1.847-16.145 2.816-24.602 2.816h-18.451c-59.807 0-108.282-48.475-108.282-108.272v-82.852c0-64.54 52.319-116.859 116.859-116.859h1.288c11.532 0 22.665 1.667 33.189 4.793-48.375 14.288-83.67 59.059-83.67 112.066v82.852c-.001 51.33 35.724 94.323 83.669 105.456z" fill="#ffcbbe"/><path d="m373.499 95.024v102.062c0 12.301-17.453 14.667-20.748 2.836-.01-.02-.01-.04-.02-.06l-34.886-127.782h32.709c12.671 0 22.945 10.274 22.945 22.944z" fill="#986b54"/><path d="m138.494 95.023c0-12.672 10.272-22.944 22.944-22.944 4.993 0 9.565 1.446 13.401 3.894 9.352-39.266 44.655-68.468 86.784-68.468h110.035c25.811 0 46.734 20.924 46.734 46.734 0 39.993-32.421 72.414-72.414 72.414h-129.492c-21.986 0-41.252 14.711-47.044 35.92z" fill="#aa7a63"/><path d="m321.509 126.655h-105.027c-15.78.019-30.123 7.513-39.199 19.749-3.525 4.753-6.22 10.204-7.848 16.165-.077.242-10.153 37.26-10.224 37.462-3.365 11.712-20.718 9.316-20.718-2.945v-102.062c0-12.67 10.274-22.945 22.944-22.945 2.496 0 4.893.36 7.129 1.028 2.257.669 4.353 1.637 6.27 2.866 9.356-39.268 44.662-68.473 86.786-68.473h34.207c-25.81 0-46.738 20.928-46.738 46.738 0 19.999 8.108 38.101 21.207 51.211 13.111 13.099 31.212 21.206 51.211 21.206z" fill="#986b54"/></g><g><ellipse cx="311.806" cy="250.991" rx="13.103" ry="17.951"/><ellipse cx="200.188" cy="250.991" rx="13.103" ry="17.951"/><path d="m311.031 198.232c-8.073 0-15.664 3.145-21.373 8.854-2.929 2.929-2.929 7.678.001 10.606 2.928 2.93 7.677 2.929 10.606 0 2.876-2.876 6.699-4.46 10.766-4.46s7.891 1.584 10.767 4.46c1.465 1.465 3.384 2.197 5.304 2.197 1.919 0 3.839-.732 5.303-2.197 2.93-2.929 2.93-7.677.001-10.606-5.71-5.709-13.301-8.854-21.375-8.854z"/><path d="m199.833 198.232c-8.073 0-15.664 3.144-21.373 8.854-2.93 2.929-2.93 7.677-.001 10.606 2.93 2.929 7.679 2.929 10.606 0 2.877-2.876 6.7-4.46 10.768-4.46s7.891 1.584 10.767 4.46c1.465 1.465 3.384 2.197 5.304 2.197 1.919 0 3.839-.732 5.303-2.197 2.93-2.929 2.93-7.677.001-10.606-5.71-5.709-13.301-8.854-21.375-8.854z"/><path d="m281.154 292.067c-3.965-1.181-8.146 1.075-9.33 5.044-2.068 6.938-8.577 11.783-15.827 11.783-7.259 0-13.767-4.842-15.825-11.774-1.178-3.97-5.35-6.235-9.324-5.055-3.971 1.179-6.234 5.354-5.055 9.325 3.934 13.25 16.354 22.505 30.204 22.505 13.833 0 26.253-9.251 30.202-22.497 1.184-3.97-1.075-8.148-5.045-9.331z"/><path d="m393.31 225.689c-4.173 0-8.312.558-12.307 1.638v-101.232c7.854-3.838 15.112-8.98 21.48-15.344 15.093-15.104 23.404-35.173 23.404-56.511 0-29.908-24.327-54.24-54.229-54.24h-110.04c-21.876 0-43.313 7.512-60.364 21.152-14.463 11.57-25.353 27.167-31.258 44.565-2.764-.755-5.639-1.138-8.558-1.138-16.79 0-30.45 13.655-30.45 30.44v1.13c0 4.142 3.357 7.5 7.5 7.5s7.5-3.358 7.5-7.5v-1.13c0-8.514 6.931-15.44 15.45-15.44 1.718 0 3.394.241 4.989.718 1.545.46 3.021 1.133 4.388 2.002 2.046 1.302 4.598 1.531 6.842.62 2.247-.912 3.915-2.854 4.477-5.212 8.791-36.921 41.476-62.707 79.484-62.707h110.04c21.631 0 39.229 17.603 39.229 39.24 0 17.333-6.753 33.637-19.012 45.905-12.271 12.262-28.571 19.015-45.897 19.015h-129.5c-24.815-.359-48.044 17.415-54.265 41.433l-10.172 37.222c-.505 2.114-2.17 2.524-3.417 2.306-1.182-.167-2.58-.818-2.628-2.927-.026-.169 0-70.823-.009-71.044 0-4.142-3.357-7.5-7.5-7.5s-7.5 3.358-7.5 7.5l.009 101.179c-3.995-1.081-8.134-1.64-12.306-1.64-25.945 0-47.053 21.107-47.053 47.052s21.107 47.052 47.053 47.052c6.76 0 13.303-1.422 19.33-4.147 11.557 31.532 36.466 56.669 67.837 68.56-1.9 3.088-3.017 6.708-3.017 10.594v7.708c0 9.27 6.259 17.088 14.767 19.499v7.602c-39.43 10.096-73.661 35.738-94.574 71.071-1.372 2.319-1.396 5.195-.062 7.535 1.335 2.34 3.821 3.785 6.516 3.785h253.01c2.693 0 5.181-1.445 6.515-3.785 1.335-2.34 1.312-5.216-.06-7.534-12.761-21.567-30.763-39.901-52.062-53.018-3.523-2.17-8.146-1.074-10.318 2.454-2.173 3.527-1.074 8.147 2.453 10.319 15.388 9.477 28.873 21.971 39.552 36.564h-225.169c20.143-27.531 49.847-46.974 83.268-54.116 3.46-.739 5.933-3.796 5.933-7.334v-12.762h46.779v12.762c0 3.536 2.47 6.592 5.928 7.333 6.277 1.346 12.495 3.136 18.48 5.322.849.31 1.718.457 2.571.457 3.061 0 5.936-1.888 7.046-4.93 1.421-3.891-.582-8.197-4.473-9.617-4.743-1.732-9.618-3.24-14.553-4.504v-7.971c7.913-2.766 13.614-10.287 13.614-19.132v-7.708c0-3.733-1.031-7.222-2.796-10.23 31.813-11.742 57.098-37.076 68.771-68.92 6.021 2.724 12.565 4.144 19.333 4.144 25.944 0 47.052-21.107 47.052-47.052s-21.107-47.053-47.051-47.053zm-27.311-94.057v65.455c0 2.21-1.44 2.871-2.648 3.036-1.211.166-2.781-.083-3.375-2.212-.016-.056-.031-.112-.049-.168l-17.361-63.582h3.412c6.846-.001 13.558-.868 20.021-2.529zm-247.308 173.161c-17.674 0-32.053-14.378-32.053-32.052 0-17.673 14.379-32.052 32.053-32.052 4.237 0 8.424.841 12.306 2.453v16.716c-2.996-1.219-6.302-2.029-9.9-2.39-7.447-.75-13.538.673-14.209.838-4.01.983-6.452 5.018-5.487 9.032.965 4.013 5.015 6.492 9.027 5.544.045-.01 4.469-1.03 9.527-.451 5.065.58 8.704 2.452 11.073 5.703.149 7.846 1.079 15.504 2.721 22.898-4.612 2.465-9.736 3.761-15.058 3.761zm169.031 84.717c2.911 0 5.28 2.373 5.28 5.29v7.708c0 2.912-2.369 5.28-5.28 5.28h-64.6c-2.911 0-5.28-2.369-5.28-5.28v-7.708c0-2.917 2.369-5.29 5.28-5.29h1.276c7.241 1.423 14.72 2.177 22.372 2.177h18.451c7.653 0 15.132-.753 22.374-2.177zm78.281-113.596c0 55.566-45.211 100.772-100.782 100.772h-18.451c-55.566 0-100.772-45.207-100.772-100.772v-61.039c.181.031.356.074.539.1.918.129 1.824.192 2.718.192 8.114.021 15.058-5.264 17.238-13.33 0 0 10.193-37.3 10.193-37.3 1.342-4.937 3.572-9.541 6.585-13.627 7.755-10.506 20.148-16.802 33.208-16.75h110.538l18.479 67.677c.023.084.048.168.073.251 2.293 7.984 9.131 13.077 17.166 13.077.869 0 1.753-.06 2.646-.182.211-.029.414-.077.622-.113zm27.307 28.879c-5.333 0-10.457-1.296-15.06-3.76 1.643-7.398 2.573-15.06 2.722-22.911 2.37-3.244 6.007-5.113 11.067-5.692 4.985-.57 9.358.412 9.522.45 4.012.968 8.057-1.491 9.042-5.503.987-4.023-1.474-8.084-5.497-9.071-.67-.165-6.761-1.587-14.209-.838-3.596.361-6.9 1.17-9.895 2.387v-16.717c3.88-1.609 8.067-2.449 12.307-2.449 17.674 0 32.052 14.378 32.052 32.052s-14.378 32.052-32.051 32.052z"/></g></g></svg>