<svg id="Capa_1" enable-background="new 0 0 511.983 511.983" height="512" viewBox="0 0 511.983 511.983" width="512" xmlns="http://www.w3.org/2000/svg"><g><g><path d="m181.373 406.153h43.68 61.88 43.68l-20.55 78.145h-111.069z" fill="#b6002a"/><path d="m339.433 458.103c17.56 12.11 32.36 27.96 43.26 46.38h-253.4c10.9-18.42 25.7-34.27 43.26-46.38" fill="#dd636e"/><path d="m220.243 458.103c-7.53 12.11-13.87 27.96-18.54 46.38h-72.41c10.9-18.42 25.7-34.27 43.26-46.38z" fill="#da4a54"/><path d="m352.063 467.863h-192.14c11.95-10.31 25.57-18.73 40.4-24.8 7.92-3.24 16.19-5.82 24.73-7.64v-79.604h61.88v79.604c24.54 5.25 46.8 16.62 65.13 32.44z" fill="#ffddce"/><path d="m247.323 381.803v85.2h-47v-23.94c7.92-3.24 16.19-5.82 24.73-7.64v-53.62z" fill="#ffcbbe"/><path d="m286.933 381.803v22.18c-7.01 1.42-14.27 2.17-21.7 2.17h-18.48c-7.43 0-14.69-.75-21.7-2.17v-22.18z" fill="#ffcbbe"/><path d="m181.37 406.151-10.828 35.742c-3.917 12.929 5.759 25.971 19.269 25.971h66.183z" fill="#da4a54"/><path d="m330.616 406.151 10.828 35.742c3.917 12.929-5.759 25.971-19.269 25.971h-66.183z" fill="#dd636e"/><g fill="#ffcbbe"><circle cx="118.474" cy="272.369" r="39.614"/><circle cx="393.519" cy="272.369" r="39.614"/></g><path d="m373.681 110.522h-235.369v165.019c0 59.892 48.552 108.444 108.444 108.444h18.481c59.892 0 108.444-48.552 108.444-108.444z" fill="#ffddce"/><path d="m290.996 380.895c-8.26 2.02-16.88 3.09-25.76 3.09h-18.48c-59.89 0-108.45-48.55-108.45-108.44v-165.02h69.99v165.02c0 51.02 35.24 93.81 82.7 105.35z" fill="#ffcbbe"/><path d="m141.889 117.375-3.578 40.031v80.662c34.77 0 31.74-84.84 31.74-84.84v-26.12z" fill="#986b54"/><path d="m341.948 127.103v26.12s-3.03 84.84 31.74 84.84v-80.662l-3.578-40.031z" fill="#986b54"/><path d="m389.325 141.757c14.451-14.451 14.451-37.881 0-52.332l-55.636-55.636c-11.546-11.546-30.265-11.546-41.81 0-6.172 6.172-9.041 14.393-8.615 22.472l-39.724-39.724c-12.073-12.073-31.647-12.073-43.719 0-8.385 8.385-10.94 20.388-7.678 30.983l-13.414-13.414c-12.073-12.073-31.647-12.073-43.719 0-12.073 12.073-12.073 31.647 0 43.719l13.414 13.414c-10.531-3.243-22.452-.739-30.83 7.525-12.191 12.025-11.781 32.243.327 44.351l.241.241c40.649 40.649 106.555 40.649 147.204 0l9.68-9.68c20.687-20.687 54.226-20.687 74.913 0l23.723 23.723z" fill="#aa7a63"/><path d="m180.674 143.366c12.28 12.27 26.86 20.84 42.35 25.69-35.81 11.24-76.49 2.68-104.87-25.69l-.24-.25c-12.11-12.1-12.52-32.32-.32-44.35 8.37-8.26 20.29-10.77 30.83-7.52l-13.42-13.42c-6.04-6.04-9.05-13.94-9.05-21.86 0-7.91 3.01-15.82 9.05-21.86 12.07-12.07 31.65-12.07 43.72 0l11.52 11.53c-1.18 3.34-1.77 6.83-1.77 10.33 0 7.92 3.01 15.82 9.05 21.86l13.41 13.42c-10.53-3.25-22.45-.74-30.83 7.52-12.19 12.03-11.78 32.25.33 44.35z" fill="#986b54"/></g><g><path d="m434.481 249.088c-2.051-3.599-6.632-4.852-10.23-2.801-3.599 2.052-4.853 6.632-2.801 10.23 2.731 4.792 4.175 10.271 4.175 15.846 0 17.711-14.404 32.12-32.11 32.12-5.332 0-10.468-1.302-15.095-3.779 1.646-7.41 2.582-15.083 2.73-22.946 2.375-3.258 6.022-5.134 11.098-5.715 5.008-.573 9.394.416 9.542.451 4.009.964 8.055-1.491 9.041-5.504.987-4.023-1.473-8.084-5.496-9.071-.671-.165-6.775-1.586-14.228-.839-3.609.363-6.924 1.176-9.928 2.4v-16.766c3.898-1.617 8.095-2.46 12.337-2.46 3.295 0 6.532.493 9.619 1.464 3.953 1.242 8.162-.952 9.406-4.903 1.243-3.951-.952-8.162-4.903-9.406-4.546-1.43-9.297-2.156-14.122-2.156-4.18 0-8.329.562-12.337 1.648v-66.386l13.45-13.459c17.351-17.352 17.351-45.585 0-62.937l-55.637-55.627c-6.998-7.004-16.305-10.862-26.207-10.862-9.9 0-19.209 3.856-26.212 10.859-3.575 3.574-6.329 7.752-8.167 12.303l-29.559-29.566c-14.983-14.97-39.353-14.969-54.324.002-5.024 5.024-8.484 11.196-10.137 17.927l-.357-.357c-14.971-14.972-39.341-14.973-54.331.004-7.25 7.262-11.242 16.907-11.242 27.159s3.993 19.897 11.247 27.163l.359.359c-6.574 1.628-12.721 4.999-17.733 9.939-2.727 2.69-5.011 5.767-6.789 9.146-1.929 3.665-.522 8.201 3.144 10.13 3.665 1.931 8.2.522 10.13-3.144 1.06-2.013 2.422-3.848 4.048-5.452 6.15-6.061 15.099-8.242 23.354-5.695 3.295 1.017 6.856-.343 8.636-3.295 1.779-2.952 1.317-6.737-1.121-9.174l-13.416-13.416c-4.422-4.43-6.857-10.311-6.857-16.561s2.436-12.131 6.851-16.554c9.135-9.128 23.99-9.128 33.116-.002l13.42 13.42c2.434 2.436 6.217 2.899 9.167 1.125 2.952-1.774 4.315-5.331 3.307-8.624-.691-2.256-1.042-4.589-1.042-6.934 0-6.257 2.434-12.137 6.854-16.557 9.125-9.125 23.98-9.125 33.113 0l39.72 39.73c2.199 2.2 5.528 2.812 8.367 1.543 2.839-1.271 4.6-4.162 4.425-7.267-.022-.389-.028-.77-.028-1.159 0-5.89 2.292-11.425 6.453-15.587 4.17-4.169 9.712-6.466 15.605-6.466s11.431 2.295 15.599 6.466l55.64 55.629c11.502 11.503 11.502 30.22-.001 41.725l-10.338 10.345-18.422-18.415c-11.418-11.424-26.603-17.716-42.756-17.716-16.152 0-31.339 6.291-42.762 17.714l-9.679 9.679c-37.641 37.631-98.876 37.65-136.541.054l-.184-.191c-.036-.038-.073-.076-.11-.113-1.631-1.631-2.992-3.452-4.044-5.413-1.959-3.65-6.507-5.02-10.155-3.062-3.65 1.959-5.021 6.506-3.062 10.155 1.734 3.231 3.954 6.214 6.597 8.868l.188.196c.036.038.073.076.11.113 5.572 5.571 11.594 10.423 17.946 14.566v63.663c-4.004-1.084-8.154-1.644-12.337-1.644-25.979 0-47.114 21.135-47.114 47.113s21.135 47.113 47.114 47.113c6.781 0 13.337-1.424 19.369-4.155 12.985 35.436 42.802 62.823 79.718 72.433v10.896l-36.186.011c-.725 0-1.455.092-2.168.306-2.403.725-4.285 2.604-5.013 5.006l-10.829 35.743c-1.601 5.284-1.596 10.75-.083 15.838-16.223 12.198-30.135 27.68-40.447 45.107-1.372 2.318-1.395 5.194-.061 7.535 1.334 2.34 3.821 3.785 6.515 3.785h253.4c2.694 0 5.181-1.445 6.515-3.785s1.312-5.216-.061-7.535c-10.316-17.433-24.224-32.915-40.437-45.106 1.513-5.089 1.518-10.554-.083-15.839l-10.829-35.742c-.728-2.402-2.609-4.281-5.013-5.006-.713-.215-1.443-.307-2.168-.306l-36.185-.011v-10.894c36.917-9.609 66.735-36.999 79.719-72.439 6.041 2.736 12.597 4.163 19.367 4.163 25.977 0 47.11-21.138 47.11-47.12 0-8.172-2.124-16.221-6.144-23.271zm-68.303-88.584v67.404c-.589-.464-1.171-.976-1.743-1.568-13.891-14.387-15.531-57.466-14.992-72.849.003-.089.005-.178.005-.268v-9.442zm-204.296 16.735c-2.009 26.23-7.758 44.049-16.074 50.563v-56.364c5.23 2.355 10.605 4.29 16.074 5.801zm-43.411 127.239c-17.708 0-32.114-14.406-32.114-32.113s14.406-32.113 32.114-32.113c4.25 0 8.447.842 12.337 2.457v16.767c-3.002-1.223-6.316-2.035-9.922-2.397-7.455-.747-13.557.674-14.228.839-4.023.987-6.483 5.048-5.496 9.071.987 4.022 5.046 6.483 9.071 5.496.041-.01 4.274-.971 9.153-.482 5.256.528 9.018 2.416 11.449 5.748.148 7.866 1.084 15.543 2.731 22.955-4.613 2.473-9.749 3.772-15.095 3.772zm99.087 121.868-15.349-12.693h15.349zm-39.839 17.722 7.56-24.952 49.877 41.249h-45.346c-4.041 0-7.739-1.861-10.146-5.106-2.408-3.246-3.117-7.325-1.945-11.191zm191.042 52.915h-225.545c7.934-10.829 17.461-20.549 28.114-28.703 5.02 4.547 11.514 7.085 18.48 7.085h58.683v9.136c0 4.142 3.358 7.5 7.5 7.5s7.5-3.358 7.5-7.5v-9.136h58.683c6.966 0 13.46-2.538 18.48-7.085 10.646 8.151 20.171 17.87 28.105 28.703zm-34.494-52.916c1.171 3.867.462 7.946-1.945 11.191-2.408 3.245-6.106 5.106-10.146 5.106h-45.346l49.877-41.249zm-24.491-30.414-15.348 12.693v-12.693zm-29.776 24.625-24.007 19.854-24.006-19.853c.366-.886.571-1.85.571-2.856v-44.81c4.655.571 9.393.87 14.2.87h18.48c4.804 0 9.538-.299 14.19-.869v44.809c0 1.005.206 1.969.572 2.855zm-14.762-61.795h-18.48c-55.664 0-100.95-45.281-100.95-100.94v-30.995c13.352-3.767 27.118-19.159 30.885-64.28 4.999.676 10.035 1.021 15.071 1.021 28.575 0 57.15-10.875 78.904-32.623l9.68-9.68c8.59-8.59 20.01-13.321 32.156-13.321 7.803 0 15.3 1.962 21.944 5.637v21.79c-.238 6.941-1.453 62.267 19.188 83.658 3.718 3.853 7.919 6.447 12.542 7.773v31.02c0 55.658-45.281 100.94-100.94 100.94z"/><path d="m200.101 232.602c-7.236 0-13.123 8.065-13.123 17.979s5.887 17.979 13.123 17.979 13.123-8.065 13.123-17.979-5.887-17.979-13.123-17.979z"/><path d="m311.892 232.602c-7.236 0-13.123 8.065-13.123 17.979s5.887 17.979 13.123 17.979 13.123-8.065 13.123-17.979-5.887-17.979-13.123-17.979z"/><path d="m179.478 206.616c-2.929 2.929-2.929 7.678 0 10.606 2.929 2.929 7.678 2.929 10.606 0 5.951-5.95 15.633-5.95 21.584 0 1.464 1.464 3.384 2.197 5.303 2.197s3.839-.732 5.303-2.197c2.929-2.929 2.929-7.678 0-10.606-11.798-11.8-30.998-11.8-42.796 0z"/><path d="m290.849 206.616c-2.929 2.929-2.929 7.678 0 10.606 2.929 2.929 7.678 2.929 10.606 0 5.951-5.95 15.633-5.95 21.584 0 1.464 1.464 3.384 2.197 5.303 2.197s3.839-.732 5.303-2.197c2.929-2.929 2.929-7.678 0-10.606-11.798-11.8-30.997-11.8-42.796 0z"/><path d="m281.182 271.371c-3.971-1.179-8.146 1.084-9.325 5.055-2.063 6.948-8.585 11.801-15.861 11.801-7.267 0-13.79-4.856-15.863-11.81-1.184-3.969-5.362-6.228-9.331-5.044s-6.228 5.361-5.044 9.331c3.954 13.261 16.388 22.523 30.238 22.523 13.866 0 26.302-9.266 30.241-22.532 1.179-3.97-1.085-8.144-5.055-9.324z"/></g></g></svg>