<?xml version="1.0" encoding="iso-8859-1"?>
<!-- Generator: Adobe Illustrator 19.0.0, SVG Export Plug-In . SVG Version: 6.00 Build 0)  -->
<svg version="1.1" id="Capa_1" xmlns="http://www.w3.org/2000/svg" xmlns:xlink="http://www.w3.org/1999/xlink" x="0px" y="0px"
	 viewBox="0 0 512 512" style="enable-background:new 0 0 512 512;" xml:space="preserve">
<g>
	<g>
		<path d="M258.53,71.003l-0.724-0.002c-0.01,0-0.018,0-0.028,0c-5.51,0-9.985,4.459-10,9.973c0,0.008,0,0.016,0,0.024
			c-0.002,5.512,4.458,9.988,9.973,10.003l0.725,0.002c0.009,0,0.018,0,0.027,0c5.51,0,9.985-4.459,10-9.973
			c0-0.008,0-0.016,0-0.024C268.505,75.494,264.045,71.018,258.53,71.003z"/>
	</g>
</g>
<g>
	<g>
		<path d="M501.391,133.108c-6.566-24.965-25.935-44.626-50.542-51.31c-25.375-6.911-96.12-9.456-151-10.373
			c-5.49-0.075-10.074,4.31-10.166,9.832c-0.092,5.522,4.31,10.074,9.832,10.166c75.96,1.27,127.838,4.705,146.085,9.674
			c17.73,4.816,31.697,19.031,36.45,37.104c9.83,37.283,9.95,116.997,9.95,117.797c0,0.801-0.12,80.515-9.951,117.804
			c-4.752,18.067-18.719,32.282-36.455,37.1c-36.648,9.98-188.069,10.097-189.594,10.097c-1.525,0-152.946-0.118-189.6-10.099
			c-17.73-4.816-31.697-19.031-36.45-37.104C20.12,336.513,20,256.799,20,255.999c0-0.801,0.12-80.515,9.951-117.803
			c4.752-18.067,18.719-32.282,36.455-37.1c18.647-5.078,72.059-8.537,150.399-9.742c5.522-0.084,9.929-4.63,9.845-10.152
			c-0.085-5.522-4.645-9.893-10.153-9.845c-56.569,0.869-129.439,3.387-155.34,10.44c-24.613,6.685-43.982,26.347-50.546,51.306
			C0.121,172.891,0,252.624,0,255.999s0.121,83.108,10.609,122.89c6.566,24.965,25.935,44.626,50.542,51.31
			c39.208,10.677,188.513,10.8,194.849,10.8s155.641-0.123,194.843-10.798c24.613-6.685,43.982-26.347,50.546-51.306
			C511.879,339.107,512,259.374,512,255.999S511.879,172.891,501.391,133.108z"/>
	</g>
</g>
<g>
	<g>
		<path d="M58,229.521c-5.523,0-10,4.477-10,10v81.5c0,5.523,4.477,10,10,10s10-4.477,10-10v-81.5
			C68,233.998,63.523,229.521,58,229.521z"/>
	</g>
</g>
<g>
	<g>
		<path d="M58,184.021c-5.523,0-10,4.477-10,10v0.118c0,5.523,4.477,10,10,10s10-4.477,10-10v-0.118
			C68,188.498,63.523,184.021,58,184.021z"/>
	</g>
</g>
<g>
	<g>
		<path d="M337.106,248.873l-124-72c-3.094-1.797-6.911-1.804-10.011-0.019c-3.1,1.785-5.011,5.09-5.011,8.667v144
			c0,3.578,1.911,6.882,5.011,8.667c1.544,0.889,3.266,1.333,4.989,1.333c1.735,0,3.47-0.45,5.022-1.352l124-72
			c3.083-1.79,4.979-5.084,4.979-8.648C342.085,253.957,340.188,250.663,337.106,248.873z M218.084,312.151v-109.26l94.085,54.63
			L218.084,312.151z"/>
	</g>
</g>
<g>
</g>
<g>
</g>
<g>
</g>
<g>
</g>
<g>
</g>
<g>
</g>
<g>
</g>
<g>
</g>
<g>
</g>
<g>
</g>
<g>
</g>
<g>
</g>
<g>
</g>
<g>
</g>
<g>
</g>
</svg>
