<svg id="Capa_1" enable-background="new 0 0 511.915 511.915" height="512" viewBox="0 0 511.915 511.915" width="512" xmlns="http://www.w3.org/2000/svg"><g><g><path d="m307.295 441.394c31.754 11.827 58.318 34.313 75.352 63.106h-253.379c17.035-28.795 43.601-51.281 75.358-63.108" fill="#ffd064"/><path d="m233.539 441.395c-13.869 11.829-25.478 34.307-32.917 63.105h-71.354c17.039-28.798 43.606-51.276 75.364-63.105z" fill="#ffc250"/><path d="m307.298 441.395-51.335 63.105-37.007-45.486-14.329-17.618c6.59-2.46 13.399-4.45 20.398-5.95v-53.615h61.875v53.615c6.999 1.5 13.809 3.49 20.398 5.949z" fill="#ffddce"/><path d="m225.025 381.831v41.326 12.289c-6.999 1.5-13.809 3.49-20.398 5.95l14.329 17.618c12.519-12.509 28.338-10.199 28.338-10.199v-42.636h17.908c7.429 0 14.689-.75 21.698-2.17v-22.178z" fill="#ffcbbe"/><path d="m393.467 232.792 16.554-113.586c5.348-36.694-14.027-72.546-47.653-88.178l-.005-.002c-67.472-31.367-145.346-31.366-212.818.002-33.625 15.632-53 51.484-47.652 88.178l16.554 113.587" fill="#365e7d"/><path d="m255.956 7.5c-10.979 0-21.958 7.849-32.157 23.528-9.039 13.909-14.659 43.806-14.659 76.073 0 4.01.08 8.059.26 12.109l5.01 113.58h-95.962l-16.549-113.58c-.59-4.07-.88-8.119-.88-12.139 0-32.247 18.628-62.135 48.526-76.043 33.737-15.679 70.074-23.528 106.411-23.528z" fill="#2b4d66"/><g fill="#ffcbbe"><circle cx="118.45" cy="272.406" r="39.61"/><circle cx="393.472" cy="272.406" r="39.61"/></g><path d="m336.397 162.969-25.388-52.396-12.958 52.396h-159.765v112.608c0 59.887 48.548 108.435 108.435 108.435h18.48c59.887 0 108.435-48.548 108.435-108.435v-112.608z" fill="#ffddce"/><path d="m291.397 380.823c-8.379 2.09-17.158 3.19-26.188 3.19h-18.488c-59.885 0-108.431-48.546-108.431-108.431v-112.61h70.844v112.61c0 50.855 35.017 93.542 82.263 105.241z" fill="#ffcbbe"/></g><g><path d="m401.978 226.095 15.41-105.759c5.709-39.165-14.249-77.325-49.662-94.954-3.71-1.845-8.208-.336-10.053 3.37-1.845 3.707-.337 8.208 3.37 10.053 29.599 14.735 46.279 46.63 41.507 79.368l-15.678 107.597c-1.951.274-3.882.662-5.78 1.176v-63.946c0-4.141-3.356-7.498-7.498-7.498h-32.525l-23.332-48.15c-1.376-2.842-4.388-4.514-7.528-4.187-3.141.329-5.739 2.591-6.497 5.657l-11.546 46.681h-153.844c-4.141 0-7.498 3.357-7.498 7.498v63.946c-1.896-.513-3.826-.901-5.776-1.175l-15.688-107.595c-.532-3.662-.801-7.375-.801-11.038 0-29.585 17.344-56.762 44.188-69.236 57.303-26.64 121.816-30.163 181.655-9.923 3.923 1.326 8.177-.777 9.505-4.7 1.327-3.923-.777-8.178-4.7-9.504-63.507-21.481-131.972-17.742-192.782 10.529-32.111 14.923-52.861 47.438-52.861 82.834 0 4.382.322 8.821.958 13.198l15.42 105.758c-21.897 4.035-38.542 23.255-38.542 46.302 0 25.968 21.126 47.095 47.094 47.095 6.778 0 13.332-1.424 19.362-4.153 12.979 35.419 42.781 62.793 79.678 72.401v7.435c0 4.141 3.356 7.498 7.498 7.498 4.141 0 7.498-3.357 7.498-7.498v-4.579c4.655.571 9.393.871 14.199.871h18.472c4.801 0 9.533-.299 14.183-.869v44.794c0 3.536 2.471 6.592 5.93 7.332 3.128.669 6.224 1.446 9.282 2.327l-38.633 47.488-38.634-47.491c3.055-.879 6.147-1.656 9.271-2.324 3.459-.74 5.93-3.795 5.93-7.332v-10.346c0-4.141-3.356-7.498-7.498-7.498-4.141 0-7.498 3.357-7.498 7.498v4.408c-39.486 10.114-73.751 35.784-94.674 71.148-1.371 2.318-1.394 5.193-.06 7.532s3.82 3.783 6.512 3.783h253.297c2.692 0 5.179-1.444 6.513-3.783 1.335-2.339 1.311-5.214-.06-7.532-20.922-35.364-55.192-61.033-94.685-71.148v-41.709c36.901-9.605 66.707-36.983 79.687-72.408 6.036 2.731 12.589 4.156 19.359 4.156 25.968 0 47.095-21.127 47.095-47.095-.001-23.047-16.645-42.266-38.54-46.303zm-199.684 224.236 37.902 46.59h-96.972c15.119-20.676 35.633-36.801 59.07-46.59zm166.402 46.589h-96.97l37.899-46.586c23.439 9.79 43.953 25.914 59.071 46.586zm-250.204-192.424c-17.699 0-32.099-14.4-32.099-32.1s14.4-32.099 32.099-32.099c4.248 0 8.443.842 12.332 2.455v16.76c-3.001-1.222-6.313-2.034-9.918-2.396-7.446-.748-13.55.674-14.222.839-4.007.984-6.449 5.017-5.485 9.029.965 4.013 5.011 6.487 9.025 5.542.043-.011 4.469-1.032 9.541-.451 5.068.58 8.712 2.452 11.086 5.703.148 7.865 1.083 15.539 2.73 22.949-4.611 2.47-9.745 3.769-15.089 3.769zm146.707 71.974h-18.472c-55.641 0-100.907-45.262-100.907-100.897v-105.076h152.215c3.447 0 6.451-2.351 7.278-5.697l7.975-32.242 16.335 33.712c1.253 2.586 3.874 4.228 6.747 4.228h29.727v105.076c-.001 55.634-45.263 100.896-100.898 100.896zm128.223-71.974c-5.333 0-10.466-1.3-15.088-3.772 1.645-7.406 2.58-15.076 2.729-22.936 2.374-3.257 6.02-5.132 11.093-5.713 5.007-.574 9.388.416 9.538.451 4.005.967 8.053-1.491 9.038-5.502.987-4.022-1.473-8.082-5.495-9.069-.67-.165-6.769-1.587-14.222-.839-3.607.362-6.921 1.175-9.923 2.399v-16.759c3.889-1.616 8.084-2.459 12.331-2.459 17.7 0 32.1 14.4 32.1 32.099s-14.401 32.1-32.101 32.1z"/><path d="m200.088 232.651c-7.233 0-13.117 8.062-13.117 17.971 0 9.91 5.884 17.972 13.117 17.972s13.118-8.062 13.118-17.972c0-9.909-5.885-17.971-13.118-17.971z"/><path d="m311.833 232.651c-7.233 0-13.117 8.062-13.117 17.971 0 9.91 5.884 17.972 13.117 17.972s13.118-8.062 13.118-17.972c0-9.909-5.885-17.971-13.118-17.971z"/><path d="m179.474 206.674c-2.929 2.928-2.929 7.675-.001 10.603s7.675 2.928 10.603 0c5.949-5.948 15.626-5.948 21.575 0 1.463 1.464 3.383 2.196 5.301 2.196s3.838-.732 5.302-2.196c2.928-2.928 2.928-7.675-.001-10.603-11.793-11.793-30.986-11.793-42.779 0z"/><path d="m290.799 206.674c-2.929 2.928-2.929 7.675-.001 10.603s7.675 2.928 10.603 0c5.949-5.948 15.626-5.948 21.575 0 1.463 1.464 3.383 2.196 5.301 2.196s3.838-.732 5.302-2.196c2.928-2.928 2.928-7.675-.001-10.603-11.793-11.793-30.986-11.793-42.779 0z"/><path d="m281.136 281.4c-3.967-1.178-8.142 1.084-9.321 5.053-2.063 6.945-8.582 11.796-15.854 11.796-7.263 0-13.784-4.854-15.856-11.804-1.184-3.969-5.363-6.225-9.328-5.042-3.967 1.183-6.225 5.36-5.042 9.327 3.954 13.256 16.383 22.514 30.226 22.514 13.861 0 26.291-9.262 30.228-22.522 1.179-3.97-1.084-8.143-5.053-9.322z"/></g></g></svg>