<svg id="Capa_1" enable-background="new 0 0 511.99 511.99" height="512" viewBox="0 0 511.99 511.99" width="512" xmlns="http://www.w3.org/2000/svg"><g><g><path d="m241.207 7.5c-81.491 0-147.553 66.061-147.553 147.552v349.436h295.106v-349.436c0-81.491-66.062-147.552-147.553-147.552z" fill="#ffd064"/><path d="m296.405 18.183c-54.15 21.85-108.729 74.9-108.729 136.87v349.44h-94.021v-349.44c0-81.49 66.06-147.55 147.55-147.55 19.52 0 38.15 3.79 55.2 10.68z" fill="#ffc250"/><path d="m367.906 504.5h-253.4c20.571-34.772 55.039-60.346 95.763-69.06v-53.616h61.874v53.616c40.724 8.714 75.192 34.288 95.763 69.06z" fill="#ffddce"/><path d="m272.149 381.825v22.18c-7.01 1.42-14.27 2.17-21.7 2.17h-18.48c-7.43 0-14.69-.75-21.7-2.17v-22.18z" fill="#ffcbbe"/><path d="m228.136 381.82v53.62c-17.21 8.71-31.77 34.29-40.46 69.06h-73.17c20.57-34.77 55.04-60.35 95.76-69.06v-53.62z" fill="#ffcbbe"/><g><circle cx="378.732" cy="272.386" fill="#ffcbbe" r="39.614"/></g><path d="m358.891 136.91v138.65c0 59.89-48.55 108.44-108.44 108.44h-18.48c-59.89 0-108.45-48.55-108.45-108.44v-52.48s106.45 18.53 235.37-86.17z" fill="#ffddce"/><path d="m273.721 381.49c-7.49 1.65-15.28 2.51-23.27 2.51h-18.48c-59.89 0-108.45-48.55-108.45-108.44v-52.48s24.83 4.32 65.02-3v55.48c0 51.9 36.47 95.29 85.18 105.93z" fill="#ffcbbe"/><path d="m178.105 477.993h126.201v26.507h-126.201z" fill="#61a2f9"/></g><g><path d="m425.841 272.382c0-19.784-12.263-36.747-29.583-43.717v-73.615c0-85.495-69.554-155.05-155.05-155.05-47.395 0-91.565 21.256-121.188 58.317-2.586 3.235-2.06 7.955 1.176 10.541 3.236 2.587 7.956 2.06 10.541-1.176 26.761-33.48 66.662-52.682 109.471-52.682 77.224 0 140.05 62.826 140.05 140.05v70.289c-.838-.044-1.681-.07-2.53-.07-4.183 0-8.332.562-12.337 1.646v-90.005c0-2.893-1.664-5.528-4.276-6.771-2.611-1.245-5.706-.874-7.952.95-67.163 54.548-127.867 74.49-166.965 81.613-38.077 6.936-62.059 3.046-62.403 2.987-2.183-.376-4.41.229-6.101 1.651-1.694 1.425-2.673 3.526-2.673 5.74v52.48c0 53.848 36.904 99.237 86.75 112.214v41.725c-38.109 9.76-71.361 34.015-92.464 67.491h-9.159v-341.94c0-22.726 5.271-44.401 15.666-64.424 1.909-3.676.476-8.203-3.2-10.112-3.677-1.91-8.204-.476-10.112 3.2-11.353 21.867-17.354 46.535-17.354 71.336v349.44c0 4.142 3.357 7.5 7.5 7.5h295.109c4.143 0 7.5-3.358 7.5-7.5v-35.61c0-4.142-3.357-7.5-7.5-7.5s-7.5 3.358-7.5 7.5v28.11h-9.162c-21.093-33.476-54.342-57.73-92.455-67.491v-41.723c36.917-9.609 66.735-36.999 79.719-72.438 6.038 2.732 12.594 4.158 19.367 4.158.849 0 1.692-.025 2.53-.07v119.514c0 4.142 3.357 7.5 7.5 7.5s7.5-3.358 7.5-7.5v-122.84c17.322-6.971 29.585-23.933 29.585-43.718zm-129.035 224.608h-111.2v-11.498h111.2zm-126.205-38.142v38.142h-42.173c11.366-15.536 25.772-28.501 42.173-38.142zm183.377 38.142h-42.167v-38.143c16.401 9.642 30.805 22.607 42.167 38.143zm-83.405-54.216c9.059 1.937 17.842 4.784 26.238 8.44v19.278h-111.21v-19.278c8.397-3.657 17.179-6.504 26.238-8.441 3.46-.74 5.932-3.796 5.932-7.334v-44.811c4.655.571 9.393.871 14.2.871h18.48c4.803 0 9.538-.299 14.189-.869v44.809c.001 3.539 2.473 6.595 5.933 7.335zm-20.121-66.274h-18.48c-55.664 0-100.95-45.281-100.95-100.94v-44.136c10.896.774 31.417 1.034 58.865-3.966 38.419-7 96.732-25.783 161.505-75.106v123.208c-.001 55.659-45.282 100.94-100.94 100.94zm128.276-72.004c-5.336 0-10.472-1.301-15.095-3.774 1.646-7.41 2.582-15.083 2.73-22.946 2.375-3.258 6.022-5.135 11.098-5.716 5.019-.572 9.403.419 9.542.451 4.013.965 8.057-1.492 9.041-5.504.987-4.023-1.474-8.084-5.497-9.071-.67-.165-6.771-1.584-14.228-.839-3.609.363-6.925 1.176-9.929 2.4v-16.767c3.891-1.617 8.088-2.461 12.337-2.461 17.707 0 32.113 14.406 32.113 32.113s-14.405 32.114-32.112 32.114z"/><path d="m185.314 237.62c-2.838 0-5.462 1.254-7.611 3.36l-4.959-3.528c-3.378-2.403-8.059-1.61-10.459 1.764-2.401 3.375-1.611 8.058 1.764 10.459l8.147 5.796c0 .043-.005.085-.005.128 0 9.914 5.887 17.979 13.123 17.979s13.123-8.065 13.123-17.979-5.887-17.979-13.123-17.979z"/><path d="m309.675 237.452-4.959 3.528c-2.149-2.106-4.773-3.36-7.611-3.36-7.236 0-13.123 8.065-13.123 17.979s5.887 17.979 13.123 17.979 13.123-8.065 13.123-17.979c0-.043-.005-.085-.005-.128l8.147-5.796c3.375-2.401 4.165-7.083 1.764-10.459-2.4-3.375-7.083-4.166-10.459-1.764z"/><path d="m297.46 212.77c4.076 0 7.909 1.587 10.791 4.47 1.465 1.465 3.384 2.197 5.304 2.197 1.919 0 3.839-.732 5.303-2.197 2.93-2.929 2.93-7.677.001-10.606-5.716-5.716-13.315-8.864-21.398-8.864s-15.683 3.148-21.398 8.864c-2.93 2.929-2.93 7.677-.001 10.606 2.93 2.929 7.679 2.929 10.606 0 2.883-2.883 6.715-4.47 10.792-4.47z"/><path d="m266.395 281.39c-3.969-1.178-8.146 1.084-9.324 5.055-2.063 6.948-8.586 11.801-15.861 11.801-7.267 0-13.79-4.856-15.863-11.809-1.185-3.969-5.358-6.231-9.331-5.044-3.969 1.184-6.228 5.361-5.044 9.33 3.955 13.261 16.389 22.523 30.238 22.523 13.866 0 26.302-9.265 30.24-22.531 1.179-3.971-1.084-8.146-5.055-9.325z"/></g></g></svg>